<?xml version="1.0" encoding="utf-8"?>
<!-- Generator: Adobe Illustrator 24.1.0, SVG Export Plug-In . SVG Version: 6.00 Build 0)  -->
<svg version="1.1" id="Layer_1" xmlns="http://www.w3.org/2000/svg" xmlns:xlink="http://www.w3.org/1999/xlink" x="0px" y="0px"
	 viewBox="0 0 40 40" style="enable-background:new 0 0 40 40;" xml:space="preserve">
<style type="text/css">
	.st0{fill:#F58136;}
	.st1{fill:#F47B2D;}
</style>
<g>
	<path class="st0" d="M1.1,20c0-2.9,0-5.8,0-8.7c0-5.1,3.3-9.1,8.3-10c0.5-0.1,1-0.1,1.4-0.1c6.1,0,12.1,0,18.2,0
		c5.3,0,9.7,4.4,9.8,9.7c0,6.1,0,12.2,0,18.3c0,5-4,9.3-9,9.7c-0.4,0-0.9,0-1.3,0c-5.9,0-11.7,0-17.6,0c-4,0-7-1.9-8.9-5.5
		c-0.7-1.3-1-2.8-1-4.3C1.1,26,1.1,23,1.1,20z M2.2,20C2.1,20,2.1,20,2.2,20c0,3,0,6,0,9c0,4.9,3.9,8.8,8.8,8.8c6,0,12.1,0,18.1,0
		c4.9,0,8.8-3.9,8.8-8.7c0-6.1,0-12.2,0-18.3c0-4.8-3.9-8.7-8.7-8.7c-6.1,0-12.2,0-18.4,0c-4.5,0-8.5,3.7-8.6,8.2
		C2,13.5,2.2,16.8,2.2,20z"/>
	<path class="st1" d="M19.7,10c-0.2,0.2-0.4,0.3-0.5,0.5c-1.8,1.8-3.6,3.6-5.5,5.5c-0.3,0.3-0.5,0.5-0.9,0.2
		c-0.3-0.3-0.1-0.6,0.2-0.9c2.2-2.2,4.4-4.4,6.6-6.6c0.4-0.4,0.6-0.4,1.1,0c2.2,2.2,4.4,4.4,6.6,6.6c0.3,0.3,0.5,0.5,0.2,0.9
		c-0.3,0.3-0.6,0.1-0.9-0.2c-1.8-1.8-3.6-3.6-5.5-5.5c-0.1-0.1-0.3-0.3-0.5-0.5c0,0.3,0,0.5,0,0.7c0,6.4,0,12.7,0,19.1
		c0,0.2,0,0.4,0,0.5c0,0.2-0.2,0.4-0.4,0.4c-0.3,0-0.5-0.1-0.5-0.4c0-0.2,0-0.4,0-0.5c0-6.4,0-12.7,0-19.1
		C19.7,10.5,19.7,10.3,19.7,10z"/>
</g>
</svg>
