<?xml version="1.0" encoding="utf-8"?>
<!-- Generator: Adobe Illustrator 24.1.0, SVG Export Plug-In . SVG Version: 6.00 Build 0)  -->
<svg version="1.1" id="Layer_1" xmlns="http://www.w3.org/2000/svg" xmlns:xlink="http://www.w3.org/1999/xlink" x="0px" y="0px"
	 viewBox="0 0 1080 991.5" style="enable-background:new 0 0 1080 991.5;" xml:space="preserve">
<style type="text/css">
	.st0{fill:#010101;}
	.st1{fill:#9D9FA2;}
	.st2{fill:#6A6B6E;}
	.st3{fill:#FFFFFF;}
</style>
<g>
	<g transform="matrix(0.30529451148382114 0 0 -0.30529451148382114 -0.07693421689401703 33.12170684539123)">
		<path class="st0" d="M1316.2-1194.2c20.8-188.1,180.1-334.4,373.8-334.4h156.8c193.6,0,353,146.3,373.8,334.4H1316.2"/>
	</g>
	<g transform="matrix(0.30529451148382114 0 0 -0.30529451148382114 -29.650813544331754 -77.91787580992377)">
		<path class="st1" d="M1830-698.3h-419.4v-214.3H1830V-698.3"/>
	</g>
	<g transform="matrix(0.30529451148382114 0 0 -0.30529451148382114 29.260341864143925 -77.91787580992377)">
		<path class="st2" d="M1703.6-698.3v-214.3h423.3v214.3H1703.6"/>
	</g>
	<g transform="matrix(0.30529451148382114 0 0 -0.30529451148382114 -44.47744149454337 -43.06102760851431)">
		<path class="st2" d="M1633-866.3h-173.8v-227.3H1633V-866.3"/>
	</g>
	<g transform="matrix(0.30529451148382114 0 0 -0.30529451148382114 0.0009158835345033367 -43.06102760851431)">
		<path class="st1" d="M1553.9-1093.6h429.8v227.3h-429.8V-1093.6"/>
	</g>
	<g transform="matrix(0.30529451148382114 0 0 -0.30529451148382114 44.40142316118403 -43.06102760851431)">
		<path class="st2" d="M1904.9-866.3v-227.3h172.5v227.3H1904.9"/>
	</g>
	<g transform="matrix(0.30529451148382114 0 0 -0.30529451148382114 29.258815391586438 -8.203263523570314)">
		<path class="st1" d="M1705.6-1047.4v-214.2H2125v214.2H1705.6"/>
	</g>
	<g transform="matrix(0.30529451148382114 0 0 -0.30529451148382114 -29.652340016889184 -8.203263523570314)">
		<path class="st2" d="M1832-1047.4h-423.3v-214.2H1832V-1047.4"/>
	</g>
	<g transform="matrix(0.30529451148382114 0 0 -0.30529451148382114 -0.07693421689390334 -120.0317271965595)">
		<path class="st0" d="M1980.9-445.7v-215.5c0-23.1-18.7-41.8-41.8-41.8c-23.1,0-41.8,18.7-41.8,41.8v236.6
			c-16.6,2.2-33.4,3.8-50.5,3.8h-36.6v-240.4c0-23.1-18.7-41.8-41.8-41.8c-23.1,0-41.8,18.7-41.8,41.8v240.4H1690
			c-14.7,0-29.2-1.1-43.5-2.8v-237.6c0-23.1-18.7-41.8-41.8-41.8c-23.1,0-41.8,18.7-41.8,41.8v217.9
			c-136.4-49.1-236.2-174.6-247.6-325h906.4C2210.4-620.4,2113.7-496.6,1980.9-445.7"/>
	</g>
	<g transform="matrix(0.30529451148382114 0 0 -0.30529451148382114 -0.0006105890230401201 32.966311939045994)">
		<path class="st3" d="M1768.8-1225.8l43.8-88.7l97.9-14.2l-70.8-69.1l16.7-97.5l-87.6,46l-87.6-46l16.7,97.5l-70.8,69.1l97.9,14.2
			L1768.8-1225.8"/>
	</g>
	<g transform="matrix(0.30529451148382114 0 0 -0.30529451148382114 0 48.974429648700124)">
		<path class="st0" d="M2279-678.5v-365.8l-11.3-101.8c-23.7-214.5-204.5-376.3-420.5-376.3h-156.8c-216,0-396.8,161.7-420.5,376.3
			l-11.3,101.8v365.8h-94.1v-368.4l11.9-109.6c29-262.2,250-459.9,514-459.9h30.7V-2109h-509.5v-94H2326v94h-510.8v492.6h32
			c264,0,485,197.7,514,459.9l11.6,104.4l0.3,373.6H2279"/>
	</g>
	<g transform="matrix(1.5745007680491552 0 0 1.5745007680491552 512 743.8703437176664)">
		<path class="st1" d="M-311.1,112.9c-1.8-0.3-3.6-1.5-5.5-3.6c-1.9-2.1-3.1-4-3.6-5.8l0,0c0-0.2-0.1-0.5-0.3-0.8
			c-0.2-0.3-0.4-0.5-0.5-0.6l0,0c-0.5-0.3-0.7-2.2-0.7-5.6l0,0c0-2.7,0.1-5.5,0.4-8.4c0.3-2.9,0.6-5.3,1.1-7l0,0l3-8.9l2.3-6.7
			l4.6-9.7L-317,54c-0.8-0.1-1.4-0.5-1.9-1.2c-0.5-0.7-0.8-1.3-0.8-1.8l0,0c0-0.9,0.5-2,1.4-3.3c1-1.3,1.7-1.9,2.3-1.9l0,0
			c0.3,0.1,1.2,0.2,2.7,0.2l0,0c3.4,0,5.9-0.2,7.6-0.5l0,0c1.1-0.5,1.9-1.4,2.4-2.7l0,0c0.4-0.9,1-2,1.6-3.4
			c0.6-1.3,1.2-2.6,1.8-3.7l0,0c0.3-0.7,0.9-1.7,1.6-3.1c0.7-1.4,1.7-3,2.8-4.8l0,0c0.2-0.3,0.7-1.1,1.5-2.4
			c0.8-1.3,1.7-2.4,2.8-3.3l0,0c0.8-0.8,1.8-1.2,2.9-1.2l0,0c1.1,0,2.6,0.7,4.4,2.2l0,0c0.2,0.3,0.5,0.8,0.9,1.3
			c0.4,0.6,0.6,1.1,0.6,1.5l0,0c0,0.5-0.4,1.4-1.3,2.9l0,0c-0.7,1.3-1.3,2.5-1.9,3.6c-0.6,1.1-1.2,2-1.6,2.8l0,0
			c-1.3,2.2-2.3,3.9-2.8,5l0,0c-1.1,1.5-1.7,2.6-1.7,3.4l0,0c0,0.8,0.7,1.2,2.2,1.2l0,0c1.6,0,4.2-0.3,7.9-1l0,0
			c1.6-0.2,2.6-0.3,3.2-0.3l0,0c3.9,0,6,1.6,6.4,4.9l0,0c0.1,0.7,0.2,1.5,0.2,2.4l0,0c0,1.6-0.5,2.5-1.6,2.8
			c-1.1,0.3-3.4,0.5-7.1,0.5l0,0c-3.6,0.6-7.3,0.8-11.1,0.8l0,0c-0.7,0-1.4,0-2.3,0.1c-0.8,0-1.7,0.2-2.6,0.4l0,0
			c-0.9,0.2-1.6,0.6-1.9,1c-0.4,0.5-0.8,1.2-1.2,2.2l0,0c-0.3,0.3-1.1,1.6-2.4,3.9l0,0c-1.6,3.2-2.6,5.2-3,5.9l0,0
			c-3,9-5.3,18.1-6.7,27.6l0,0c-0.2,1.8-0.3,2.9-0.3,3.4l0,0c0,1.7,0.6,2.8,1.7,3.5c1.1,0.7,3,1,5.7,1l0,0c3.8,0,7.1-0.4,9.9-1.2
			l0,0c3.4-1.5,5.9-2.7,7.5-3.7l0,0c1-0.6,1.9-1.1,2.8-1.6c0.8-0.5,1.4-0.9,1.8-1.1l0,0c0.3-0.7,0.7-1,1.2-1l0,0
			c0.9,0,1.7,0.9,2.3,2.7l0,0c0,1.8-0.4,3.4-1.2,4.7s-2.7,2.9-5.9,4.7l0,0c-6.5,4.1-13,6.2-19.5,6.2l0,0
			C-307.9,113.4-309.5,113.2-311.1,112.9L-311.1,112.9z M-262.7,105h-1c-1.7,0-3-0.4-3.9-1.2l0,0c-0.9-0.8-1.5-1.4-1.8-1.9
			c-0.3-0.4-0.4-1-0.4-1.7l0,0c0-0.4,0.4-2.5,1.2-6.2l0,0l1.5-5.6c1.1-4.6,2.1-8.4,3-11.4l0,0c0.5-2.8,1.3-5.8,2.6-8.9
			c1.3-3.1,2-5,2.3-5.7l0,0c0.9-3.2,2.6-8.3,5.2-15.1l0,0l5-13.6c3.9-10.6,6.3-17.1,7.1-19.5l0,0l2.7-7.4c0-1.8,0.9-2.7,2.7-2.7l0,0
			c1.6,0,2.9,0.9,3.9,2.6c1.1,1.7,1.6,3.7,1.6,6l0,0c0,1.7-0.3,3.3-1,4.9l0,0c-1.6,3.4-3.3,7.6-5.1,12.7c-1.9,5.1-3.1,8.4-3.6,10
			l0,0c-3.8,10.7-6.5,17.9-8.2,21.5l0,0c0,0.5-0.2,1.2-0.5,2.4c-0.3,1.1-0.7,2.1-1.2,3l0,0l-1.9,3.7c0,0.3-0.6,2.7-1.9,7l0,0
			c-1.6,4.8-2.5,8.4-2.8,10.6l0,0c0.6-1,1.7-2.5,3.5-4.6c1.8-2.1,3.5-3.8,5-5.1l0,0c6.2-5.3,10-8.4,11.4-9.4l0,0
			c1.3-0.8,2.5-1.5,3.4-2.2c0.9-0.7,1.5-1.1,1.9-1.3l0,0c0-0.6,0.6-0.9,1.9-0.9l0,0c0.5,0,0.7-0.1,0.8-0.2c0-0.1,0.1-0.4,0.1-0.8
			l0,0c0-0.8,1.3-1.5,3.9-2.1c2.6-0.6,4.9-0.9,6.9-0.9l0,0c1.3,0,2.4,0.3,3.2,0.8c0.8,0.6,1.8,1.8,3,3.7l0,0
			c1.9,2.7,2.9,5.6,2.9,8.7l0,0c0,1.8-0.3,3.6-1,5.5l0,0c0,0.9-0.1,2.3-0.4,4.1c-0.3,1.9-0.4,3.4-0.4,4.8l0,0l-1,5.4h2.7
			c0.8,0,1.5,0.1,2.3,0.3c0.7,0.2,1.2,0.4,1.4,0.5l0,0c1,1.2,1.9,1.9,2.7,1.9l0,0c1,0,1.5,0.4,1.5,1.2l0,0c0,0.4-0.2,1-0.7,1.7
			c-0.4,0.7-1.1,1.2-1.9,1.7l0,0c-2.9,1.8-5.4,2.7-7.4,2.7l0,0c-1.9,0-3.9-0.9-5.9-2.7l0,0c-2.5-2.5-3.7-5.4-3.7-8.9l0,0
			c0-1.8,0.3-3.9,1-6.4l0,0l0.5-5.4c0.2-2.7,0.3-4.4,0.3-5l0,0c0-2.6-0.6-3.9-1.9-3.9l0,0c-1.6,0-4.6,1.4-9,4.1
			c-4.4,2.7-9,6.2-13.7,10.2c-4.7,4.1-8.5,8.2-11.2,12.3l0,0c-1.7,2.1-3.1,3.7-4.3,4.8C-260.6,104.3-261.7,104.9-262.7,105
			L-262.7,105z M-161.3,108.2c-2.8,2.5-6.2,3.7-10.1,3.7l0,0c-2.8,0-5.5-0.7-8-2c-2.5-1.3-4.6-3.2-6.3-5.5l0,0
			c-1.4-1.8-2.5-3.8-3.2-6.1c-0.7-2.2-1-5-1-8.2l0,0c0-1.1,0.1-3.4,0.3-6.7l0,0c0.3-4.1,1.7-8.4,4.1-12.9c2.4-4.5,5.4-8.5,9-12
			c3.6-3.5,7.1-6,10.6-7.3l0,0c1.8-1.1,3.4-1.7,4.9-1.7l0,0c0.8,0,1.6,0.1,2.3,0.2c0.8,0.1,1.6,0.2,2.5,0.3l0,0
			c2.5,0.3,4.3,0.8,5.6,1.4c1.3,0.6,2.4,1.5,3.3,2.8l0,0c2.8,2.8,4.2,6,4.2,9.7l0,0c-0.5,2.7-2.2,5.8-5.2,9.2s-6.7,6.3-10.9,8.4l0,0
			c-2,0.7-4.3,1-6.9,1l0,0c-3.5,0-6.3-0.7-8.4-2.2l0,0c-1-0.3-1.8-0.5-2.4-0.5l0,0c-1,0-1.8,0.7-2.3,2c-0.5,1.3-1,3.8-1.4,7.4l0,0
			c-0.1,0.8-0.2,1.9-0.2,3.4l0,0c0,5.7,1.9,8.8,5.7,9.4l0,0c2.6,0.6,4.4,0.9,5.6,0.9l0,0c1.3,0,2.9-0.5,4.5-1.4l0,0l3.2-1.8
			c0.7-0.3,1.3-0.8,1.9-1.4c0.6-0.6,1.1-1.1,1.5-1.5l0,0c0.2-0.2,0.6-0.6,1-1.1c0.4-0.5,0.9-0.8,1.2-1c0.4-0.2,0.8-0.2,1.1-0.2l0,0
			c0.5,0,1,0.3,1.5,0.8c0.6,0.5,1,0.9,1.3,1.1l0,0c1,0,1.2,0.7,0.7,2.1c-0.6,1.4-1.8,3-3.6,4.9
			C-156.8,105.1-158.9,106.8-161.3,108.2L-161.3,108.2z M-161.4,72.6c1.9-0.8,3.8-2.2,5.8-4.2s2.9-3.7,2.9-5l0,0
			c0-1.3-0.5-2.5-1.5-3.4c-1-0.9-2.4-1.3-4.2-1.3l0,0c-1.3,0-2.4,0.1-3,0.3l0,0c-1.6,0.4-3.4,1.6-5.6,3.6c-2.1,2-4,4-5.5,6
			c-1.6,2-2.2,3.2-1.9,3.5l0,0c0.6,1,2.7,1.5,6.5,1.5l0,0C-165.2,73.6-163.1,73.3-161.4,72.6L-161.4,72.6z M-142.8,151.7l-1.3,0.2
			c-0.9,0-1.6-0.5-2.2-1.5l0,0c-0.6-0.8-0.8-1.7-0.8-2.8l0,0c0-0.8,0.3-2.7,0.8-5.7l0,0c1.2-4.7,1.9-8,1.9-9.8l0,0
			c0-0.6,0.1-1.4,0.3-2.4c0.2-1.1,0.4-2,0.5-2.9l0,0c0.5-0.8,0.9-2,1.3-3.6c0.4-1.6,0.6-3.1,0.6-4.3l0,0c0-0.6,0.2-1.2,0.6-1.9
			c0.4-0.7,0.9-1.3,1.4-1.8l0,0c0-0.7,0.2-1.7,0.5-3.1c0.3-1.4,0.5-2.4,0.7-2.9l0,0c0.6-3,2.8-10.2,6.6-21.5
			c3.8-11.3,7-20.4,9.7-27.4l0,0c1.2-2.8,2.1-5.4,2.7-7.7c0.6-2.4,0.9-4.2,0.9-5.6l0,0c0-0.5,0.1-0.9,0.4-1.3
			c0.3-0.4,0.8-0.9,1.4-1.6l0,0c0.8-0.8,1.5-1.2,2.2-1.2l0,0c0.6,0,1.2,0.2,1.9,0.7c0.7,0.5,1.4,1,2,1.5l0,0c0.7,1,1.2,2,1.6,2.8
			c0.4,0.9,0.6,1.9,0.6,2.9l0,0c0,0.3-0.1,1.4-0.3,3.2l0,0c0,2.4-0.5,4.3-1.5,5.8c-1,1.5-1.4,2.2-1.2,2.1l0,0
			c5-2.4,9.5-3.5,13.4-3.5l0,0c4.7,0,8.4,1.5,11,4.5c2.6,3,4,7,4,11.8l0,0c0,2-0.6,4.4-1.8,7.3c-1.2,2.9-2.3,4.8-3.4,5.8l0,0
			c-0.7,0-1.6,1.2-2.7,3.5l0,0c-1.4,1.8-3.9,3.7-7.2,5.6c-3.3,1.9-5.7,2.7-7,2.3l0,0c-0.1,0-0.3,0.1-0.5,0.2
			c-0.2,0.1-0.3,0.4-0.3,0.8l0,0c0,0.5-1.9,1.3-5.7,2.5c-3.8,1.2-7,1.9-9.4,1.9l0,0c-1.3,0-2.4-0.1-3-0.3c-0.7-0.2-1.3-0.5-2-1.1
			l0,0c-0.8,0.8-1.2,1.5-1.2,2.2l0,0c0,1.2-0.6,3.5-1.7,6.7c-1.1,3.2-2,4.9-2.7,4.9l0,0c-0.1,0.1-0.3,0.3-0.4,0.7
			c-0.2,0.3,0,0.7,0.4,1.2l0,0c0,0.3-0.1,1.1-0.2,2.4c-0.1,1.2-0.4,2.2-0.9,2.8l0,0c0,1-0.2,2.4-0.5,4.1c-0.3,1.7-0.7,3.1-1.2,3.9
			l0,0c0,1.3-0.2,2.7-0.6,3.9c-0.4,1.3-0.8,1.9-1.3,1.9l0,0c-0.7,0.2-1,1.9-1,4.9l0,0c-0.1,2.8-0.7,5-1.7,6.5
			C-140.3,150.9-141.5,151.7-142.8,151.7L-142.8,151.7z M-122.5,95.6c1.7,0,5.1-0.9,10.2-2.6c5.1-1.7,8.7-3.4,10.7-5.1l0,0
			c2.4-2,4.3-4.2,5.7-6.5c1.5-2.3,2.2-4.6,2.2-7l0,0c0-1.8-0.5-3.4-1.5-4.9l0,0c-0.8-1.2-2.1-1.8-4-1.8l0,0c-2.2,0-4.9,0.8-8,2.3
			c-3.1,1.6-5.9,3.6-8.5,6.2l0,0c-2,2-3.8,4.9-5.4,8.7c-1.6,3.7-2.4,6.7-2.4,8.8l0,0C-123.5,95-123.2,95.6-122.5,95.6L-122.5,95.6z
			 M-69.6,108.2c-0.9-0.7-1.5-1.3-1.9-1.8c-0.3-0.6-0.5-1.4-0.5-2.5l0,0c0-1,0.1-1.8,0.2-2.5l0,0c0.3-3.8,1.2-8.2,2.5-13.3l0,0
			l0.9-3.4c0.3-2.8,2.3-8.7,5.9-17.6c3.6-9,6.5-15.1,8.7-18.3l0,0c0.9-0.6,1.8-0.9,2.8-0.9l0,0c1.5,0,2.7,0.5,3.7,1.5l0,0
			c0.7,0.5,1,1.3,1,2.5l0,0c0,1.1-0.4,2.8-1.2,5c-0.8,2.2-2.3,5.4-4.3,9.6l0,0c-0.5,0.9-1.2,2.6-2.3,5c-1.1,2.5-1.6,3.9-1.6,4.4l0,0
			c0,0.2,0.1,0.3,0.2,0.3l0,0c0.2,0,0.4-0.1,0.7-0.2c0.2-0.2,0.5-0.3,0.7-0.4l0,0c1.2-2.1,4.2-5,9-8.7c4.8-3.7,8.1-6,9.8-6.9l0,0
			c0.8-0.4,1.8-0.9,3-1.3c1.2-0.5,2.1-0.8,2.5-1l0,0c1.8-0.9,3.9-1.4,6.4-1.4l0,0c1.6,0,2.9,0.3,4.1,0.8c1.2,0.5,2,1.3,2.4,2.3l0,0
			c0.1,0.8,0.4,1.4,0.9,1.8c0.5,0.5,0.9,0.7,1.1,0.9l0,0c0.3,0,0.5,0.1,0.7,0.4C-14,62.7-14,62.9-14,63l0,0c0,0.8-0.4,1.3-1.3,1.4
			c-0.9,0.2-2.5,0.3-4.9,0.4l0,0c-1.2,0.1-2.5,0.4-3.9,0.9c-1.3,0.4-2.7,1-4,1.7l0,0c-6.3,3.6-11,6.4-14,8.4c-3.1,2-6.2,4.8-9.3,8.2
			l0,0c-1.2,1.3-2.8,3.8-4.9,7.2l0,0c-0.8,0.8-1.6,2.8-2.4,6.1c-0.8,3.3-1.2,5.4-1.2,6.1l0,0c-0.1,0.3-0.3,1-0.7,1.9
			c-0.3,0.9-0.8,1.9-1.5,2.8l0,0c-1.3,1.8-2.5,2.7-3.4,2.7l0,0C-66.5,110.9-67.9,110-69.6,108.2L-69.6,108.2z M-0.7,111.6
			c-1.3,0-2.4-0.2-3.2-0.7c-0.8-0.5-1.9-1.3-3.4-2.5l0,0c-3.7-3.9-5.5-7.5-5.5-10.7l0,0c0-0.8,0-1.4,0.1-1.7l0,0
			c0.3-0.8,0.5-1.6,0.4-2.4c-0.1-0.8-0.1-1.3-0.1-1.5l0,0c-0.4-0.5-0.7-0.8-0.7-0.9s0.1-0.3,0.3-0.5c0.2-0.2,0.4-0.4,0.5-0.6l0,0
			c0.7,0,0.9-0.6,0.7-1.9l0,0c-0.2-0.9,0.2-2.9,1.3-6c1.1-3.1,2.5-5.9,4.2-8.5l0,0c1.2-2,3.1-4.5,5.5-7.6c2.4-3,4.6-5.3,6.5-6.9l0,0
			c2.7-2.4,5.1-4.1,7.2-5.2s4.5-2,7.1-2.5l0,0c2.2-0.6,3.7-0.8,4.5-0.8l0,0c0.8,0,1.5,0.2,2.1,0.6c0.6,0.4,1.4,1.1,2.4,2.1l0,0
			c3,1.3,5.1,3.1,6.3,5.1c1.2,2.1,1.8,5.3,1.8,9.6l0,0c0,7.3-3,15.2-8.9,23.7l0,0c-2.6,3.7-5,6.5-7.2,8.5c-2.2,1.9-5.2,4-8.9,6.3
			l0,0c-2.4,1.7-4.5,2.9-6.5,3.6C4,111,1.8,111.5-0.7,111.6L-0.7,111.6z M15.4,93.8c2.7-3,4.8-5.9,6.5-8.6c1.6-2.7,3.2-6.1,4.6-10.2
			l0,0c0.6-1.9,0.9-4.2,0.9-6.9l0,0c0-3.4-0.5-5.3-1.4-5.7l0,0c-1.1-0.6-2.2-0.9-3.4-0.9l0,0c-2.5,0-5,1.1-7.7,3.4l0,0
			c-3.2,2.8-6.2,6.3-8.7,10.3C3.6,79.3,1,84.3-1.7,90.4l0,0c-1.1,2.4-1.7,4.6-1.7,6.9l0,0c0,1.7,0.4,3,1.3,4c0.8,1,2,1.5,3.4,1.5
			l0,0C5,102.8,9.7,99.8,15.4,93.8L15.4,93.8z M91,117.3c-2.8,0.7-4.7-0.6-5.7-3.7l0,0c-1.6-4.4-2.4-9-2.4-13.8l0,0
			c0-1.3,0.1-2.3,0.2-2.8l0,0l0.3-3.5l-6.5,5.2c-3.6,3.1-7.1,5.5-10.7,7.1c-3.5,1.6-6.7,2.4-9.7,2.4l0,0c-1.9-0.3-3.7-1.2-5.5-2.4
			c-1.7-1.3-3-2.8-3.8-4.6l0,0c-0.5-0.9-0.7-2.2-0.7-4l0,0c0-4.1,1.1-9,3.4-14.7c2.2-5.6,5-10.3,8.4-14l0,0
			c4.8-7.3,10.2-10.9,16.1-10.9l0,0c2.8,0,5.6,0.8,8.4,2.5l0,0c2.8,1.1,4.4,1.7,4.9,1.7l0,0c0.7,0,1.2-0.3,1.5-0.8
			c0.3-0.6,0.7-1.6,1-3l0,0c1.2-5.2,2.4-9.5,3.5-13l0,0c2.5-7.4,4.6-13.3,6.4-17.8c1.8-4.5,4-9.4,6.5-14.8l0,0
			c1.1-2.4,2.1-3.9,2.9-4.6c0.8-0.7,1.8-1,2.8-0.9l0,0c2.5,0,4.4,1.7,5.7,5l0,0c0.3,0.8,0.5,1.6,0.5,2.4l0,0c0,0.8-0.3,1.8-1,3.2
			l0,0c-2.9,5-6.5,13.3-10.8,24.7c-4.3,11.4-7.6,21.3-9.9,29.7l0,0c-1,3.7-1.9,9-2.6,16c-0.7,6.9-1.1,12.7-1.1,17.3l0,0
			c0,2,0.1,3.5,0.3,4.4l0,0c0.6,1.9,0.9,3.6,0.9,5l0,0c0,1.1-0.3,1.9-0.9,2.3C93.2,116.9,92.3,117.2,91,117.3L91,117.3z M62.7,98.6
			c2.6-0.6,5.7-2.2,9.4-5l0,0c0.7-0.4,2.3-1.6,4.9-3.5c2.6-1.9,4.5-3.9,5.9-6c1.3-2.1,2.3-4.5,2.8-7.2l0,0c0.1-2-0.1-3.7-0.6-4.9
			c-0.5-1.3-1.5-2.6-2.9-3.8l0,0c-1.1-0.8-2.5-1.2-4.2-1.2l0,0c-3,0-5.8,1.2-8.4,3.7l0,0c-3,2.7-5.7,6.2-8.1,10.4
			c-2.4,4.3-4.1,9.2-5.4,14.8l0,0c-0.3,2.1,0.8,3.2,3.3,3.2l0,0C60.8,99,61.9,98.9,62.7,98.6L62.7,98.6z M131.4,112.2
			c-1.6,0.2-2.8,0.3-3.5,0.3l0,0c-4.2,0-7.6-1.3-10.2-3.9c-2.7-2.6-4-6.2-4-10.7l0,0c-0.4-4.9,0.7-11,3.3-18.3
			c2.6-7.3,6-13.4,10-18.3l0,0c2.8-3.2,5.2-5.9,7.2-7.9c2-2,3.9-3.4,5.6-4l0,0c2.4-1,5-1.5,7.9-1.5l0,0c2,0.5,4,1.3,6,2.5
			c2,1.2,2.9,2.5,2.9,3.7l0,0l0.8,0.8c0.7,0,1.3,0.8,1.9,2.4c0.6,1.6,0.9,3.4,0.9,5.3l0,0c0,1.6-0.3,2.9-0.9,4l0,0
			c-0.4,2.1-1.2,4-2.3,5.6c-1.1,1.6-2.1,2.4-3.1,2.4l0,0c-1.2,0-1.9,0.3-1.9,1l0,0c0,0.4-0.2,0.7-0.7,0.7l0,0c-0.6,0-1.2-0.3-2-1
			c-0.8-0.7-1.3-1.5-1.7-2.4l0,0c0-0.3,0.2-1.3,0.7-2.8c0.4-1.6,0.9-3.3,1.3-5.2l0,0c0.3-1.3,0.5-2.5,0.5-3.5l0,0
			c0-2.2-0.8-3.4-2.5-3.4l0,0c-0.9,0-1.8,0.2-2.7,0.7l0,0c-4.5,2.5-8.5,6.4-11.9,11.8s-6.4,12.8-8.7,22.2l0,0
			c-0.6,2.5-0.9,4.4-0.9,5.9l0,0c0,1.1,0.1,2,0.3,2.7c0.2,0.7,0.4,1.1,0.6,1.2l0,0c0.6,0.2,1.7,0.3,3.5,0.3l0,0
			c4.1,0,7.1-0.5,8.7-1.5l0,0c3.6-1.9,7.6-4.5,11.9-7.7l0,0c0.4-0.3,1.1-0.9,2-1.8c0.9-0.8,1.8-1.4,2.5-1.8l0,0
			c0.8-1.2,1.5-2,2.2-2.3c0.7-0.3,1.7-0.4,3.2-0.4l0,0c1.4,0.5,2.6,1,3.5,1.8c0.9,0.7,0.9,1.3,0,1.8l0,0c-0.3,0-0.6,0.1-0.7,0.3
			c-0.1,0.2-0.2,0.4-0.2,0.5l0,0c0.2,0.6-0.7,2-2.7,4.2c-2,2.2-4.3,4.3-6.7,6.3c-2.5,1.9-4.1,2.9-5,2.9l0,0c-0.5,0-0.9,0.1-1.2,0.2
			c-0.3,0.1-0.5,0.4-0.5,0.9l0,0c0,0.4-1.7,1.5-5.1,3.1C136.2,110.7,133.5,111.8,131.4,112.2L131.4,112.2z M173.8,108.1
			c-0.3-0.7-0.9-1.4-1.6-2.1c-0.7-0.7-1.1-1.2-1.1-1.4l0,0c0-1.2-0.3-2.2-0.9-2.9l0,0c-0.2-0.2-0.3-0.7-0.3-1.5l0,0
			c0-1.8,0.9-4.8,2.6-9.2c1.7-4.3,4-9,6.8-14l0,0c0.7-0.7,1.5-1.8,2.6-3.5c1.1-1.7,1.8-2.6,2.1-2.8l0,0c0-0.5,0.2-0.9,0.5-1.3
			c0.3-0.4,0.7-0.6,1.2-0.6l0,0v-1c0-1,1.9-3.5,5.6-7.3c3.7-3.9,6.7-6.5,9.1-8l0,0c2.8-1.9,5.6-2.9,8.5-2.9l0,0c2,0,3.8,0.6,5.2,1.7
			l0,0c0.6,0.7,3.1,3.1,7.7,7.2l0,0l6.2,5.6l-3,8.4c-1,3-1.5,5.8-1.5,8.2l0,0c0,4.3,1.2,8.3,3.7,12.3l0,0c0.6,1.2,1.7,2.4,3.4,3.5
			c1.7,1.1,3.4,1.8,5,2l0,0c2.5,0.5,3.7,1.7,3.7,3.7l0,0c0,2.2-1,3.6-3,4l0,0c-0.4,0.1-1.1,0.2-2,0.2l0,0c-6.6,0-12.3-4.6-17.1-13.9
			l0,0c-0.5-0.7-1-1.9-1.8-3.7c-0.7-1.8-1.2-3-1.3-3.7l0,0c-0.7,0.9-1.5,2-2.5,3.2c-1,1.2-2,2.3-2.8,3.2l0,0
			c-12.2,12.2-21.9,18.3-28.9,18.3l0,0C177.7,109.7,175.6,109.2,173.8,108.1L173.8,108.1z M179.9,98.6c0,0.6,0.6,0.7,1.8,0.5
			c1.2-0.2,2.6-0.8,4.4-1.7c1.7-0.9,3.5-2.1,5.3-3.5l0,0c9.6-8.3,16.6-15.5,20.8-21.7l0,0l3.7-6.1c-1.1-2.3-2.3-4-3.5-5.1
			c-1.2-1.1-2.3-1.6-3.4-1.6l0,0c-2.3,0-6,2.9-11.1,8.8c-5,5.9-9.6,12.8-13.8,20.7l0,0c-1,1.9-1.9,3.8-2.7,5.8
			C180.6,96.8,180.1,98.1,179.9,98.6L179.9,98.6z M256.3,114.8c-2-0.8-4-1.9-5.9-3.5c-1.9-1.5-3.2-2.8-3.9-3.9l0,0
			c0-0.2,0-0.6,0-1.2c0-0.6,0.2-0.9,0.5-1.1c0.3-0.2,0.9-0.3,1.9-0.3l0,0c1.9,0,4.9,0.2,9.1,0.7l0,0c2.5,0,5.3-0.3,8.4-0.9
			c3.1-0.6,4.9-1.3,5.2-2.1l0,0c0.3,0,0.5-0.1,0.5-0.2l0,0c0-0.2-0.4-0.8-1.3-1.7l0,0c-0.2,0-0.7-0.2-1.5-0.6
			c-0.8-0.4-1.3-0.6-1.5-0.6l0,0c0-0.5-0.5-1-1.5-1.8c-1-0.7-2.1-1.4-3.4-1.9l0,0c-3.2-2.7-5.5-4.7-6.9-6c-1.3-1.3-1.8-2.2-1.5-2.8
			l0,0v-0.8c-0.8,0-1.6-1.1-2.6-3.3c-0.9-2.2-1.4-4.2-1.4-6.1l0,0c0-2,0.9-4.8,2.6-8.4c1.7-3.6,3.7-6.5,6-8.7l0,0
			c3.1-2.9,7.2-6,12.2-9.2s8.9-5.3,11.8-6.2l0,0c1.9-0.8,3.8-1.2,5.7-1.2l0,0c1.8,0,3.3,0.4,4.5,1.2l0,0c1.5,0.9,2.9,2.2,4.3,3.8
			c1.4,1.7,2.3,3.2,2.8,4.6l0,0c0,2.5-0.3,4.8-0.8,7.1c-0.5,2.3-1.3,3.4-2.3,3.4l0,0c-0.1,0-0.3,0.1-0.5,0.2
			c-0.2,0.1-0.3,0.4-0.3,0.9l0,0c0,0.4-0.2,1-0.7,1.8c-0.5,0.7-1.1,1.4-1.9,2.1l0,0c-2.5,1.8-4.5,2.7-6.1,2.7l0,0
			c-1.2,0-2-0.6-2.3-1.9l0,0c-0.2-0.2-0.5-0.6-0.7-1c-0.2-0.4-0.5-0.7-0.8-0.7l0,0c-0.1,0-0.3-0.2-0.6-0.6c-0.3-0.4-0.4-0.9-0.4-1.6
			l0,0c0-0.3,0.1-0.7,0.4-1.1c0.3-0.4,0.5-0.6,0.6-0.8l0,0c0.7,0,1.8-1.3,3.4-3.9c1.6-2.6,2.3-4.4,2.3-5.3l0,0
			c0-0.7-0.1-1.1-0.2-1.2c-0.2-0.1-0.7-0.1-1.6-0.1l0,0c-8.7,3.9-14.2,6.9-16.3,8.9l0,0c-0.3,0.7-0.6,1.1-0.8,1.3
			c-0.2,0.2-0.5,0.3-0.9,0.3l0,0c0-1-3,2.8-8.9,11.4l0,0c-0.2,0.2-0.5,0.9-0.8,2c-0.3,1.1-0.4,2.1-0.4,2.9l0,0
			c-0.2,0.9-0.3,1.4-0.3,1.5l0,0c0,0.4,0.2,0.9,0.6,1.3c0.4,0.4,0.9,0.9,1.6,1.4c0.7,0.5,1.3,1,2,1.6l0,0c5.8,4.4,9.9,7.6,12.2,9.8
			c2.3,2.2,3.7,4,4.1,5.5l0,0c1.5,2.2,2.2,4.3,2.2,6l0,0c0,1.3-0.5,2.5-1.5,3.5c-1,1-2.5,2-4.6,2.9l0,0c-1.2,0.6-3.3,1-6.2,1.4
			c-2.9,0.4-5.8,0.6-8.6,0.6l0,0C259.8,115.1,258.1,115,256.3,114.8L256.3,114.8z M318.3,112.9c-1.8-0.3-3.6-1.5-5.5-3.6
			c-1.9-2.1-3.1-4-3.6-5.8l0,0c0-0.2-0.1-0.5-0.3-0.8c-0.2-0.3-0.4-0.5-0.5-0.6l0,0c-0.4-0.3-0.7-2.2-0.7-5.6l0,0
			c0-2.7,0.1-5.5,0.4-8.4c0.3-2.9,0.6-5.3,1.1-7l0,0l3-8.9l2.4-6.7l4.5-9.7l-6.7-1.9c-0.8-0.1-1.4-0.5-1.9-1.2
			c-0.5-0.7-0.8-1.3-0.8-1.8l0,0c0-0.9,0.5-2,1.4-3.3c1-1.3,1.7-1.9,2.3-1.9l0,0c0.3,0.1,1.2,0.2,2.7,0.2l0,0c3.4,0,5.9-0.2,7.5-0.5
			l0,0c1.1-0.5,1.9-1.4,2.4-2.7l0,0c0.4-0.9,1-2,1.6-3.4c0.6-1.3,1.2-2.6,1.8-3.7l0,0c0.3-0.7,0.9-1.7,1.6-3.1
			c0.7-1.4,1.7-3,2.8-4.8l0,0c0.2-0.3,0.7-1.1,1.5-2.4c0.8-1.3,1.8-2.4,2.9-3.3l0,0c0.8-0.8,1.7-1.2,2.8-1.2l0,0
			c1.1,0,2.6,0.7,4.4,2.2l0,0c0.2,0.3,0.5,0.8,0.9,1.3c0.4,0.6,0.6,1.1,0.6,1.5l0,0c0,0.5-0.4,1.4-1.3,2.9l0,0
			c-0.7,1.3-1.3,2.5-1.9,3.6c-0.6,1.1-1.2,2-1.6,2.8l0,0c-1.3,2.2-2.3,3.9-2.8,5l0,0c-1.1,1.5-1.7,2.6-1.7,3.4l0,0
			c0,0.8,0.7,1.2,2.2,1.2l0,0c1.6,0,4.2-0.3,7.9-1l0,0c1.6-0.2,2.6-0.3,3.2-0.3l0,0c3.9,0,6.1,1.6,6.4,4.9l0,0
			c0.1,0.7,0.2,1.5,0.2,2.4l0,0c0,1.6-0.5,2.5-1.6,2.8c-1.1,0.3-3.5,0.5-7.2,0.5l0,0c-3.6,0.6-7.3,0.8-11.1,0.8l0,0
			c-0.7,0-1.4,0-2.3,0.1c-0.8,0-1.7,0.2-2.6,0.4l0,0c-0.9,0.2-1.5,0.6-1.9,1c-0.4,0.5-0.8,1.2-1.3,2.2l0,0c-0.3,0.3-1.1,1.6-2.4,3.9
			l0,0c-1.6,3.2-2.6,5.2-3,5.9l0,0c-3,9-5.3,18.1-6.7,27.6l0,0c-0.2,1.8-0.3,2.9-0.3,3.4l0,0c0,1.7,0.6,2.8,1.7,3.5
			c1.1,0.7,3,1,5.7,1l0,0c3.8,0,7.1-0.4,9.9-1.2l0,0c3.4-1.5,5.9-2.7,7.5-3.7l0,0c1-0.6,1.9-1.1,2.8-1.6c0.8-0.5,1.4-0.9,1.8-1.1
			l0,0c0.3-0.7,0.7-1,1.2-1l0,0c0.9,0,1.7,0.9,2.4,2.7l0,0c0,1.8-0.4,3.4-1.2,4.7c-0.8,1.3-2.7,2.9-5.9,4.7l0,0
			c-6.5,4.1-13,6.2-19.5,6.2l0,0C321.6,113.4,319.9,113.2,318.3,112.9L318.3,112.9z"/>
	</g>
</g>
</svg>
