<?xml version="1.0" encoding="utf-8"?>
<!-- Generator: Adobe Illustrator 24.1.0, SVG Export Plug-In . SVG Version: 6.00 Build 0)  -->
<svg version="1.1" id="Layer_1" xmlns="http://www.w3.org/2000/svg" xmlns:xlink="http://www.w3.org/1999/xlink" x="0px" y="0px"
	 viewBox="0 0 1080 991.5" style="enable-background:new 0 0 1080 991.5;" xml:space="preserve">
<style type="text/css">
	.st0{fill:#FFFFFF;}
	.st1{fill:#010101;}
</style>
<g>
	<g id="logo-logo_2_" transform="matrix(1.5745007680491552 0 0 1.5745007680491552 512 437.4501309046606)">
		<g transform="matrix(0.30529451148382114 0 0 -0.30529451148382114 -0.07693421689401703 33.12170684539123)">
			<path class="st0" d="M-231,192.6C-217.7,72.3-115.8-21.2,8-21.2h100.2c123.8,0,225.7,93.6,239,213.8H-231"/>
		</g>
		<g transform="matrix(0.30529451148382114 0 0 -0.30529451148382114 -29.650813544331754 -77.91787580992377)">
			<path class="st0" d="M132.4,378.5h-268.1v-137h268.1V378.5"/>
		</g>
		<g transform="matrix(0.30529451148382114 0 0 -0.30529451148382114 29.260341864143925 -77.91787580992377)">
			<path class="st0" d="M-18,378.5v-137h270.6v137H-18"/>
		</g>
		<g transform="matrix(0.30529451148382114 0 0 -0.30529451148382114 -44.47744149454337 -43.06102760851431)">
			<path class="st0" d="M24,312.2H-87.2V166.9H24V312.2"/>
		</g>
		<g transform="matrix(0.30529451148382114 0 0 -0.30529451148382114 0.0009158835345033367 -43.06102760851431)">
			<path class="st0" d="M-79.2,166.9h274.8v145.3H-79.2V166.9"/>
		</g>
		<g transform="matrix(0.30529451148382114 0 0 -0.30529451148382114 44.40142316118403 -43.06102760851431)">
			<path class="st0" d="M92.8,312.2V166.9h110.3v145.3H92.8"/>
		</g>
		<g transform="matrix(0.30529451148382114 0 0 -0.30529451148382114 29.258815391586438 -8.203263523570314)">
			<path class="st0" d="M-16.7,237.6v-137h268.1v137H-16.7"/>
		</g>
		<g transform="matrix(0.30529451148382114 0 0 -0.30529451148382114 -29.652340016889184 -8.203263523570314)">
			<path class="st0" d="M133.7,237.6H-137v-137h270.6V237.6"/>
		</g>
		<g transform="matrix(0.30529451148382114 0 0 -0.30529451148382114 -0.07693421689390334 -120.0317271965595)">
			<path class="st0" d="M194,490.2V352.4c0-14.8-12-26.7-26.7-26.7c-14.8,0-26.7,12-26.7,26.7v151.3c-10.6,1.4-21.3,2.4-32.3,2.4
				H84.8V352.4c0-14.8-11.9-26.7-26.7-26.7s-26.7,12-26.7,26.7v153.7H8c-9.4,0-18.7-0.7-27.8-1.8V352.4c0-14.8-12-26.7-26.7-26.7
				s-26.7,12-26.7,26.7v139.3c-87.2-31.4-151-111.6-158.3-207.8h579.5C340.7,378.5,278.9,457.7,194,490.2"/>
		</g>
		<g transform="matrix(0.30529451148382114 0 0 -0.30529451148382114 -0.0006105890230401201 32.966311939045994)">
			<path class="st1" d="M58.2,172.1l28-56.7l62.6-9.1l-45.3-44.2l10.7-62.3l-56,29.4L2.3-0.2l10.7,62.3l-45.3,44.2l62.6,9.1
				L58.2,172.1"/>
		</g>
		<g transform="matrix(0.30529451148382114 0 0 -0.30529451148382114 0 48.974429648700124)">
			<path class="st0" d="M384.5,541V307.1l-7.2-65.1C362.1,104.8,246.5,1.4,108.4,1.4H8.1C-130,1.4-245.6,104.8-260.7,242l-7.2,65.1
				V541h-60.2V305.5l7.6-70.1C-302,67.7-160.7-58.7,8.1-58.7h19.6v-314.9H-298v-60.1h712.6v60.1H87.9v314.9h20.5
				c168.8,0,310.1,126.4,328.6,294.1l7.4,66.8l0.2,238.9H384.5"/>
		</g>
	</g>
	<g transform="matrix(1.5745007680491552 0 0 1.5745007680491552 512 743.8703437176664)">
		<path class="st0" d="M-313.3,114.7c-1.8-0.3-3.6-1.6-5.5-3.7c-1.9-2.1-3.1-4-3.6-5.8l0,0c0-0.2-0.1-0.5-0.3-0.8
			c-0.2-0.3-0.4-0.5-0.5-0.6l0,0c-0.5-0.3-0.7-2.2-0.7-5.6l0,0c0-2.7,0.1-5.5,0.4-8.5c0.3-2.9,0.6-5.3,1.1-7.1l0,0l3-9l2.4-6.8
			l4.6-9.8l-6.8-1.9c-0.8-0.1-1.5-0.5-2-1.2c-0.5-0.7-0.8-1.3-0.8-1.8l0,0c0-0.9,0.5-2,1.4-3.3c1-1.3,1.7-1.9,2.3-1.9l0,0
			c0.3,0.1,1.2,0.2,2.7,0.2l0,0c3.4,0,5.9-0.2,7.6-0.5l0,0c1.1-0.5,1.9-1.4,2.4-2.7l0,0c0.4-0.9,1-2,1.6-3.4
			c0.6-1.3,1.2-2.6,1.8-3.7l0,0c0.3-0.7,0.9-1.7,1.6-3.1c0.7-1.4,1.7-3,2.8-4.8l0,0c0.2-0.3,0.7-1.1,1.5-2.5
			c0.8-1.3,1.7-2.4,2.9-3.3l0,0c0.8-0.8,1.8-1.2,2.9-1.2l0,0c1.1,0,2.6,0.7,4.4,2.2l0,0c0.2,0.3,0.5,0.8,0.9,1.3
			c0.4,0.6,0.6,1.1,0.6,1.5l0,0c0,0.5-0.4,1.4-1.3,2.9l0,0c-0.7,1.4-1.3,2.6-1.9,3.6c-0.6,1.1-1.2,2-1.6,2.8l0,0
			c-1.4,2.3-2.3,3.9-2.9,5.1l0,0c-1.1,1.5-1.7,2.6-1.7,3.4l0,0c0,0.8,0.7,1.2,2.2,1.2l0,0c1.6,0,4.2-0.3,8-1l0,0
			c1.6-0.2,2.6-0.3,3.2-0.3l0,0c3.9,0,6.1,1.6,6.4,4.9l0,0c0.1,0.7,0.2,1.5,0.2,2.4l0,0c0,1.6-0.5,2.5-1.6,2.9
			c-1.1,0.3-3.5,0.5-7.2,0.5l0,0c-3.6,0.6-7.3,0.8-11.2,0.8l0,0c-0.7,0-1.4,0-2.3,0.1c-0.8,0-1.7,0.2-2.6,0.4l0,0
			c-0.9,0.2-1.6,0.6-2,1c-0.4,0.5-0.8,1.2-1.2,2.2l0,0c-0.3,0.3-1.1,1.6-2.4,3.9l0,0c-1.6,3.3-2.6,5.2-3,5.9l0,0
			c-3.1,9-5.3,18.3-6.8,27.7l0,0c-0.2,1.8-0.3,2.9-0.3,3.4l0,0c0,1.7,0.6,2.9,1.7,3.6c1.1,0.7,3,1,5.8,1l0,0c3.8,0,7.1-0.4,10-1.2
			l0,0c3.4-1.5,5.9-2.7,7.6-3.7l0,0c1-0.6,1.9-1.1,2.8-1.6c0.8-0.5,1.4-0.9,1.8-1.1l0,0c0.3-0.7,0.7-1,1.2-1l0,0
			c0.9,0,1.7,0.9,2.4,2.7l0,0c0,1.8-0.4,3.4-1.2,4.7c-0.8,1.4-2.8,2.9-5.9,4.7l0,0c-6.6,4.2-13.1,6.2-19.6,6.2l0,0
			C-310.1,115.2-311.7,115.1-313.3,114.7L-313.3,114.7z M-264.6,106.8h-1c-1.7,0-3-0.4-3.9-1.2l0,0c-0.9-0.8-1.5-1.4-1.8-1.9
			c-0.3-0.4-0.4-1-0.4-1.7l0,0c0-0.4,0.4-2.5,1.2-6.2l0,0l1.5-5.6c1.1-4.6,2.1-8.5,3-11.5l0,0c0.5-2.8,1.3-5.8,2.6-9
			s2.1-5.1,2.3-5.7l0,0c0.9-3.3,2.6-8.3,5.2-15.2l0,0l5.1-13.7c4-10.7,6.3-17.3,7.1-19.6l0,0L-241,8c0-1.8,0.9-2.7,2.7-2.7l0,0
			c1.6,0,2.9,0.9,4,2.6c1.1,1.7,1.6,3.7,1.6,6l0,0c0,1.7-0.3,3.3-1,4.9l0,0c-1.6,3.4-3.3,7.6-5.1,12.8c-1.9,5.1-3.1,8.5-3.7,10.1
			l0,0c-3.8,10.8-6.6,18-8.3,21.6l0,0c0,0.5-0.2,1.2-0.5,2.4c-0.3,1.1-0.7,2.1-1.2,3l0,0l-1.9,3.7c0,0.3-0.6,2.7-1.9,7.1l0,0
			c-1.6,4.9-2.5,8.4-2.9,10.7l0,0c0.6-1,1.7-2.6,3.6-4.7c1.8-2.1,3.5-3.8,5.1-5.1l0,0c6.2-5.3,10-8.4,11.5-9.5l0,0
			c1.4-0.8,2.5-1.5,3.4-2.2c0.9-0.7,1.5-1.1,1.9-1.3l0,0c0-0.6,0.6-0.9,1.9-0.9l0,0c0.5,0,0.7-0.1,0.8-0.2c0-0.1,0.1-0.4,0.1-0.8
			l0,0c0-0.8,1.3-1.5,3.9-2.1c2.6-0.6,4.9-0.9,6.9-0.9l0,0c1.4,0,2.4,0.3,3.2,0.8c0.8,0.6,1.8,1.8,3,3.7l0,0
			c1.9,2.7,2.9,5.6,2.9,8.8l0,0c0,1.8-0.3,3.7-1,5.6l0,0c0,0.9-0.1,2.3-0.4,4.1c-0.3,1.9-0.4,3.5-0.4,4.8l0,0l-1,5.4h2.7
			c0.8,0,1.5,0.1,2.3,0.3c0.7,0.2,1.2,0.4,1.4,0.5l0,0c1,1.2,1.9,1.9,2.7,1.9l0,0c1,0,1.5,0.4,1.5,1.2l0,0c0,0.4-0.2,1-0.7,1.7
			c-0.4,0.7-1.1,1.2-1.9,1.7l0,0c-2.9,1.8-5.4,2.7-7.4,2.7l0,0c-1.9,0-3.9-0.9-5.9-2.7l0,0c-2.5-2.5-3.7-5.5-3.7-9l0,0
			c0-1.8,0.3-4,1-6.4l0,0l0.5-5.4c0.2-2.7,0.3-4.4,0.3-5.1l0,0c0-2.6-0.6-3.9-1.9-3.9l0,0c-1.6,0-4.6,1.4-9.1,4.1
			c-4.4,2.8-9,6.2-13.8,10.3c-4.7,4.1-8.5,8.3-11.3,12.4l0,0c-1.7,2.1-3.1,3.7-4.3,4.8C-262.5,106.1-263.6,106.7-264.6,106.8
			L-264.6,106.8z M-162.5,110c-2.8,2.5-6.2,3.7-10.1,3.7l0,0c-2.8,0-5.5-0.7-8-2c-2.5-1.3-4.6-3.2-6.3-5.6l0,0
			c-1.5-1.8-2.5-3.8-3.2-6.1c-0.7-2.3-1-5-1-8.3l0,0c0-1.1,0.1-3.4,0.3-6.8l0,0c0.3-4.2,1.7-8.5,4.1-13c2.4-4.5,5.4-8.5,9-12.1
			c3.6-3.6,7.2-6,10.7-7.4l0,0c1.8-1.1,3.4-1.7,4.9-1.7l0,0c0.8,0,1.6,0.1,2.4,0.2c0.8,0.1,1.7,0.2,2.5,0.3l0,0
			c2.5,0.3,4.4,0.8,5.7,1.4c1.3,0.6,2.4,1.6,3.3,2.8l0,0c2.8,2.8,4.2,6.1,4.2,9.8l0,0c-0.5,2.7-2.2,5.8-5.2,9.3s-6.7,6.3-11,8.5l0,0
			c-2,0.7-4.4,1-6.9,1l0,0c-3.5,0-6.3-0.7-8.5-2.2l0,0c-1-0.3-1.8-0.5-2.4-0.5l0,0c-1,0-1.8,0.7-2.3,2c-0.5,1.4-1,3.8-1.4,7.5l0,0
			c-0.1,0.8-0.2,1.9-0.2,3.4l0,0c0,5.8,1.9,8.9,5.8,9.5l0,0c2.6,0.6,4.5,0.9,5.6,0.9l0,0c1.4,0,2.9-0.5,4.6-1.4l0,0l3.2-1.8
			c0.7-0.3,1.3-0.8,1.9-1.4c0.6-0.6,1.1-1.1,1.5-1.5l0,0c0.2-0.2,0.6-0.6,1-1.1c0.4-0.5,0.9-0.8,1.2-1c0.4-0.2,0.8-0.2,1.1-0.2l0,0
			c0.5,0,1,0.3,1.5,0.8c0.6,0.5,1,0.9,1.3,1.1l0,0c1,0,1.2,0.7,0.7,2.1c-0.6,1.4-1.8,3-3.6,4.9C-158,106.9-160.1,108.5-162.5,110
			L-162.5,110z M-162.7,74.2c1.9-0.8,3.9-2.2,5.8-4.2s3-3.7,3-5.1l0,0c0-1.4-0.5-2.5-1.5-3.4c-1-0.9-2.4-1.3-4.2-1.3l0,0
			c-1.4,0-2.4,0.1-3,0.3l0,0c-1.6,0.4-3.4,1.7-5.6,3.6c-2.1,2-4,4-5.6,6c-1.6,2-2.2,3.2-1.9,3.6l0,0c0.6,1,2.8,1.5,6.6,1.5l0,0
			C-166.5,75.2-164.3,74.8-162.7,74.2L-162.7,74.2z M-143.9,153.8l-1.3,0.2c-0.9,0-1.6-0.5-2.2-1.5l0,0c-0.6-0.8-0.8-1.7-0.8-2.9
			l0,0c0-0.8,0.3-2.7,0.8-5.7l0,0c1.2-4.7,1.9-8,1.9-9.8l0,0c0-0.6,0.1-1.4,0.3-2.5c0.2-1.1,0.4-2,0.5-2.9l0,0
			c0.5-0.8,0.9-2,1.3-3.7c0.4-1.6,0.6-3.1,0.6-4.3l0,0c0-0.6,0.2-1.2,0.6-1.9c0.4-0.7,0.9-1.3,1.4-1.8l0,0c0-0.7,0.2-1.7,0.5-3.1
			c0.3-1.4,0.5-2.4,0.7-3l0,0c0.6-3,2.8-10.3,6.6-21.6c3.8-11.4,7.1-20.6,9.8-27.6l0,0c1.2-2.8,2.1-5.4,2.7-7.8
			c0.6-2.4,0.9-4.2,0.9-5.6l0,0c0-0.5,0.1-0.9,0.4-1.3c0.3-0.4,0.8-0.9,1.4-1.6l0,0c0.8-0.8,1.5-1.2,2.2-1.2l0,0
			c0.6,0,1.2,0.2,1.9,0.7c0.7,0.5,1.4,1,2,1.5l0,0c0.7,1,1.2,2,1.6,2.9c0.4,0.9,0.6,1.9,0.6,2.9l0,0c0,0.3-0.1,1.4-0.3,3.2l0,0
			c0,2.4-0.5,4.3-1.5,5.8s-1.4,2.2-1.2,2.1l0,0c5.1-2.4,9.6-3.6,13.5-3.6l0,0c4.7,0,8.4,1.5,11.1,4.6c2.7,3.1,4,7,4,11.9l0,0
			c0,2-0.6,4.5-1.8,7.4c-1.2,2.9-2.3,4.8-3.5,5.8l0,0c-0.7,0-1.6,1.2-2.7,3.6l0,0c-1.5,1.8-3.9,3.7-7.3,5.7c-3.4,2-5.7,2.7-7.1,2.3
			l0,0c-0.1,0-0.3,0.1-0.5,0.2c-0.2,0.1-0.3,0.4-0.3,0.8l0,0c0,0.5-1.9,1.3-5.7,2.5c-3.8,1.2-7,1.9-9.5,1.9l0,0
			c-1.4,0-2.4-0.1-3-0.3c-0.7-0.2-1.3-0.5-2-1.1l0,0c-0.8,0.8-1.2,1.5-1.2,2.2l0,0c0,1.2-0.6,3.5-1.7,6.8c-1.1,3.3-2,4.9-2.7,4.9
			l0,0c-0.1,0.1-0.3,0.3-0.4,0.7c-0.2,0.3,0,0.7,0.4,1.2l0,0c0,0.3-0.1,1.1-0.2,2.4c-0.1,1.2-0.4,2.2-0.9,2.9l0,0
			c0,1-0.2,2.4-0.5,4.1c-0.3,1.7-0.7,3.1-1.2,4l0,0c0,1.4-0.2,2.7-0.6,4c-0.4,1.3-0.8,2-1.3,2l0,0c-0.7,0.2-1,1.9-1,4.9l0,0
			c-0.1,2.8-0.7,5-1.7,6.6C-141.3,153-142.5,153.8-143.9,153.8L-143.9,153.8z M-123.4,97.3c1.7,0,5.1-0.9,10.2-2.6
			c5.1-1.7,8.7-3.5,10.7-5.1l0,0c2.4-2,4.3-4.2,5.8-6.5c1.5-2.3,2.2-4.7,2.2-7l0,0c0-1.8-0.5-3.5-1.5-4.9l0,0
			c-0.8-1.2-2.2-1.8-4.1-1.8l0,0c-2.3,0-4.9,0.8-8,2.4c-3.1,1.6-5.9,3.7-8.5,6.2l0,0c-2,2-3.8,5-5.4,8.7c-1.6,3.8-2.4,6.7-2.4,8.9
			l0,0C-124.4,96.7-124.1,97.3-123.4,97.3L-123.4,97.3z M-70.2,110c-0.9-0.7-1.5-1.3-1.9-1.8c-0.3-0.6-0.5-1.4-0.5-2.5l0,0
			c0-1,0.1-1.9,0.2-2.5l0,0c0.3-3.8,1.2-8.3,2.5-13.4l0,0l0.9-3.4c0.3-2.8,2.3-8.7,5.9-17.7s6.5-15.2,8.8-18.4l0,0
			c0.9-0.6,1.9-0.9,2.9-0.9l0,0c1.5,0,2.7,0.5,3.7,1.5l0,0c0.7,0.5,1,1.3,1,2.5l0,0c0,1.1-0.4,2.8-1.2,5c-0.8,2.2-2.3,5.4-4.3,9.7
			l0,0c-0.5,0.9-1.2,2.6-2.3,5.1c-1.1,2.5-1.6,4-1.6,4.4l0,0c0,0.2,0.1,0.3,0.2,0.3l0,0c0.2,0,0.4-0.1,0.7-0.2
			c0.2-0.2,0.5-0.3,0.7-0.4l0,0c1.2-2.1,4.3-5.1,9-8.8c4.8-3.7,8.1-6,9.9-6.9l0,0c0.8-0.4,1.8-0.9,3-1.3c1.2-0.5,2.1-0.8,2.5-1l0,0
			c1.8-0.9,3.9-1.4,6.4-1.4l0,0c1.6,0,2.9,0.3,4.1,0.8c1.2,0.5,2,1.3,2.5,2.3l0,0c0.1,0.8,0.4,1.4,0.9,1.8c0.5,0.5,0.9,0.7,1.1,0.9
			l0,0c0.3,0,0.5,0.1,0.7,0.4c0.1,0.3,0.2,0.5,0.2,0.6l0,0c0,0.8-0.4,1.3-1.3,1.4c-0.9,0.2-2.5,0.3-4.9,0.4l0,0
			c-1.2,0.1-2.5,0.4-3.9,0.9c-1.4,0.4-2.7,1-4,1.7l0,0c-6.3,3.6-11,6.4-14.1,8.5c-3.1,2-6.2,4.8-9.4,8.3l0,0
			c-1.2,1.4-2.9,3.8-4.9,7.3l0,0c-0.8,0.8-1.6,2.8-2.5,6.2c-0.8,3.3-1.2,5.4-1.2,6.2l0,0c-0.1,0.3-0.3,1-0.7,2
			c-0.3,0.9-0.8,1.9-1.5,2.8l0,0c-1.4,1.8-2.5,2.7-3.4,2.7l0,0C-67.1,112.7-68.5,111.8-70.2,110L-70.2,110z M-0.8,113.4
			c-1.4,0-2.4-0.2-3.2-0.7c-0.8-0.5-1.9-1.3-3.4-2.5l0,0c-3.7-3.9-5.6-7.5-5.6-10.8l0,0c0-0.8,0-1.4,0.1-1.7l0,0
			c0.3-0.8,0.5-1.6,0.4-2.4c-0.1-0.8-0.1-1.3-0.1-1.5l0,0c-0.4-0.5-0.7-0.8-0.7-0.9c0-0.2,0.1-0.3,0.3-0.5c0.2-0.2,0.4-0.4,0.5-0.6
			l0,0c0.7,0,0.9-0.6,0.7-1.9l0,0c-0.2-0.9,0.2-2.9,1.3-6c1.1-3.1,2.5-5.9,4.2-8.5l0,0c1.2-2,3.1-4.6,5.5-7.6c2.4-3,4.6-5.3,6.5-6.9
			l0,0c2.7-2.4,5.1-4.1,7.3-5.2c2.1-1.1,4.5-2,7.1-2.5l0,0c2.3-0.6,3.8-0.8,4.6-0.8l0,0c0.8,0,1.5,0.2,2.1,0.6
			c0.6,0.4,1.4,1.1,2.5,2.1l0,0c3.1,1.4,5.2,3.1,6.3,5.2c1.2,2.1,1.8,5.3,1.8,9.7l0,0c0,7.3-3,15.3-9,23.8l0,0
			c-2.6,3.7-5,6.6-7.3,8.6c-2.3,2-5.2,4.1-8.9,6.3l0,0c-2.4,1.7-4.5,2.9-6.5,3.7C3.9,112.9,1.7,113.3-0.8,113.4L-0.8,113.4z
			 M15.4,95.5c2.7-3,4.9-5.9,6.5-8.6c1.6-2.7,3.2-6.1,4.7-10.3l0,0c0.6-1.9,0.9-4.2,0.9-6.9l0,0c0-3.4-0.5-5.3-1.4-5.7l0,0
			c-1.1-0.6-2.3-0.9-3.4-0.9l0,0c-2.5,0-5.1,1.1-7.8,3.4l0,0c-3.3,2.8-6.2,6.3-8.8,10.4C3.5,80.9,0.9,86-1.8,92.1l0,0
			C-3,94.4-3.5,96.8-3.5,99l0,0c0,1.7,0.4,3,1.3,4.1c0.8,1,2,1.5,3.5,1.5l0,0C4.9,104.6,9.7,101.5,15.4,95.5L15.4,95.5z M91.5,119.1
			c-2.8,0.7-4.7-0.6-5.8-3.7l0,0c-1.6-4.4-2.4-9-2.4-13.9l0,0c0-1.3,0.1-2.3,0.2-2.9l0,0l0.3-3.6l-6.6,5.2
			c-3.6,3.2-7.2,5.5-10.7,7.1c-3.5,1.6-6.8,2.4-9.7,2.4l0,0c-1.9-0.3-3.7-1.2-5.5-2.5c-1.7-1.3-3-2.9-3.8-4.7l0,0
			c-0.5-0.9-0.7-2.3-0.7-4.1l0,0c0-4.2,1.1-9.1,3.4-14.8c2.3-5.7,5.1-10.4,8.5-14.1l0,0c4.9-7.3,10.3-11,16.2-11l0,0
			c2.8,0,5.6,0.8,8.4,2.5l0,0c2.8,1.1,4.5,1.7,4.9,1.7l0,0c0.7,0,1.2-0.3,1.5-0.8c0.3-0.6,0.7-1.6,1-3l0,0c1.2-5.2,2.4-9.5,3.6-13
			l0,0c2.5-7.4,4.6-13.4,6.4-17.9c1.8-4.5,4-9.5,6.6-14.9l0,0c1.1-2.4,2.1-3.9,3-4.7c0.8-0.7,1.8-1,2.8-0.9l0,0
			c2.5,0,4.4,1.7,5.8,5.1l0,0c0.3,0.8,0.5,1.6,0.5,2.4l0,0c0,0.8-0.3,1.9-1,3.2l0,0c-2.9,5.1-6.6,13.3-10.8,24.9
			c-4.3,11.5-7.6,21.5-10,29.9l0,0c-1,3.7-1.9,9.1-2.6,16.1c-0.7,7-1.1,12.8-1.1,17.4l0,0c0,2,0.1,3.5,0.3,4.4l0,0
			c0.6,1.9,0.9,3.6,0.9,5.1l0,0c0,1.1-0.3,1.9-0.9,2.3C93.7,118.8,92.8,119,91.5,119.1L91.5,119.1z M63,100.4
			c2.6-0.6,5.7-2.2,9.5-5.1l0,0c0.7-0.4,2.3-1.6,4.9-3.6c2.6-1.9,4.6-3.9,5.9-6.1c1.3-2.1,2.3-4.6,2.9-7.3l0,0c0.1-2-0.1-3.7-0.6-5
			c-0.5-1.3-1.5-2.6-3-3.8l0,0c-1.1-0.8-2.5-1.2-4.2-1.2l0,0c-3.1,0-5.9,1.2-8.5,3.7l0,0c-3,2.7-5.7,6.2-8.1,10.5
			c-2.4,4.3-4.2,9.2-5.4,14.9l0,0c-0.3,2.1,0.8,3.2,3.4,3.2l0,0C61.1,100.7,62.2,100.6,63,100.4L63,100.4z M132.1,114.1
			c-1.6,0.2-2.8,0.3-3.6,0.3l0,0c-4.2,0-7.6-1.3-10.3-3.9c-2.7-2.6-4.1-6.2-4.1-10.8l0,0c-0.4-5,0.7-11.1,3.3-18.5
			c2.6-7.3,6-13.5,10-18.4l0,0c2.8-3.3,5.3-5.9,7.3-7.9c2-2,3.9-3.4,5.6-4.1l0,0c2.4-1,5-1.5,7.9-1.5l0,0c2,0.5,4,1.3,6,2.5
			c2,1.2,3,2.5,3,3.7l0,0l0.8,0.8c0.7,0,1.3,0.8,1.9,2.5c0.6,1.6,0.9,3.4,0.9,5.3l0,0c0,1.6-0.3,2.9-0.9,4l0,0
			c-0.4,2.1-1.2,4-2.3,5.6s-2.1,2.4-3.1,2.4l0,0c-1.2,0-1.9,0.3-1.9,1l0,0c0,0.4-0.2,0.7-0.7,0.7l0,0c-0.6,0-1.2-0.3-2-1
			c-0.8-0.7-1.3-1.5-1.7-2.4l0,0c0-0.3,0.2-1.3,0.7-2.9c0.4-1.6,0.9-3.3,1.3-5.2l0,0c0.3-1.4,0.5-2.5,0.5-3.6l0,0
			c0-2.3-0.8-3.4-2.5-3.4l0,0c-0.9,0-1.8,0.2-2.7,0.7l0,0c-4.5,2.5-8.5,6.4-12,11.8c-3.5,5.4-6.4,12.9-8.8,22.3l0,0
			c-0.6,2.5-0.9,4.5-0.9,5.9l0,0c0,1.1,0.1,2,0.3,2.7c0.2,0.7,0.4,1.1,0.6,1.2l0,0c0.6,0.2,1.7,0.3,3.6,0.3l0,0
			c4.2,0,7.1-0.5,8.8-1.5l0,0c3.6-1.9,7.6-4.5,12-7.8l0,0c0.4-0.3,1.1-0.9,2-1.8c0.9-0.8,1.8-1.4,2.5-1.8l0,0c0.8-1.2,1.5-2,2.2-2.3
			c0.7-0.3,1.7-0.4,3.2-0.4l0,0c1.5,0.5,2.6,1,3.6,1.8c0.9,0.7,0.9,1.3,0,1.8l0,0c-0.3,0-0.6,0.1-0.7,0.3c-0.1,0.2-0.2,0.4-0.2,0.5
			l0,0c0.2,0.6-0.7,2-2.7,4.2c-2,2.3-4.3,4.4-6.8,6.3c-2.5,2-4.2,2.9-5.1,2.9l0,0c-0.5,0-0.9,0.1-1.2,0.2c-0.3,0.1-0.5,0.4-0.5,0.9
			l0,0c0,0.4-1.7,1.5-5.2,3.1C137,112.6,134.3,113.6,132.1,114.1L132.1,114.1z M174.9,109.8c-0.3-0.7-0.9-1.4-1.6-2.1
			c-0.7-0.7-1.1-1.2-1.1-1.4l0,0c0-1.2-0.3-2.2-0.9-2.9l0,0c-0.2-0.2-0.3-0.7-0.3-1.5l0,0c0-1.8,0.9-4.9,2.6-9.2
			c1.7-4.3,4-9,6.8-14.1l0,0c0.7-0.7,1.6-1.9,2.6-3.6c1.1-1.7,1.8-2.6,2.1-2.9l0,0c0-0.5,0.2-0.9,0.5-1.3c0.3-0.4,0.7-0.6,1.2-0.6
			l0,0v-1c0-1,1.9-3.5,5.6-7.4c3.7-3.9,6.8-6.6,9.1-8l0,0c2.8-1.9,5.7-2.9,8.6-2.9l0,0c2,0,3.8,0.6,5.2,1.7l0,0
			c0.6,0.7,3.2,3.1,7.8,7.3l0,0l6.2,5.6l-3,8.5c-1,3-1.5,5.8-1.5,8.3l0,0c0,4.3,1.2,8.4,3.7,12.4l0,0c0.6,1.2,1.7,2.4,3.4,3.5
			c1.7,1.1,3.4,1.8,5.1,2l0,0c2.5,0.5,3.7,1.7,3.7,3.7l0,0c0,2.3-1,3.6-3,4.1l0,0c-0.4,0.1-1.1,0.2-2,0.2l0,0
			c-6.7,0-12.4-4.7-17.2-14l0,0c-0.5-0.7-1.1-1.9-1.8-3.7c-0.7-1.8-1.2-3-1.3-3.7l0,0c-0.7,0.9-1.5,2-2.5,3.2c-1,1.2-2,2.3-2.9,3.2
			l0,0c-12.3,12.3-22,18.5-29.1,18.5l0,0C178.7,111.5,176.7,111,174.9,109.8L174.9,109.8z M181,100.4c0,0.6,0.6,0.7,1.8,0.5
			c1.2-0.2,2.7-0.8,4.4-1.7c1.7-0.9,3.5-2.1,5.3-3.6l0,0c9.7-8.3,16.7-15.6,21-21.8l0,0l3.7-6.1c-1.1-2.4-2.3-4.1-3.6-5.1
			c-1.2-1.1-2.4-1.6-3.4-1.6l0,0c-2.4,0-6.1,3-11.2,8.9c-5.1,5.9-9.7,12.9-13.9,20.9l0,0c-1,1.9-1.9,3.9-2.7,5.8
			C181.7,98.5,181.2,99.8,181,100.4L181,100.4z M257.9,116.6c-2-0.8-4-2-5.9-3.5c-1.9-1.5-3.2-2.8-3.9-4l0,0c0-0.2,0-0.6,0-1.2
			c0-0.6,0.2-0.9,0.5-1.1c0.3-0.2,0.9-0.3,1.9-0.3l0,0c1.9,0,5,0.2,9.1,0.7l0,0c2.5,0,5.3-0.3,8.5-0.9c3.2-0.6,4.9-1.3,5.2-2.1l0,0
			c0.3,0,0.5-0.1,0.5-0.2l0,0c0-0.2-0.4-0.8-1.3-1.7l0,0c-0.2,0-0.7-0.2-1.5-0.6c-0.8-0.4-1.3-0.6-1.5-0.6l0,0
			c0-0.5-0.5-1.1-1.5-1.8c-1-0.7-2.1-1.4-3.4-1.9l0,0c-3.3-2.7-5.6-4.7-6.9-6c-1.3-1.3-1.8-2.2-1.5-2.8l0,0v-0.8
			c-0.8,0-1.7-1.1-2.6-3.3c-0.9-2.2-1.4-4.3-1.4-6.2l0,0c0-2,0.9-4.8,2.6-8.5c1.7-3.6,3.7-6.5,6-8.8l0,0c3.2-2.9,7.2-6,12.3-9.3
			c5-3.3,9-5.4,11.9-6.2l0,0c1.9-0.8,3.8-1.2,5.8-1.2l0,0c1.8,0,3.3,0.4,4.6,1.2l0,0c1.5,0.9,2.9,2.2,4.3,3.9
			c1.4,1.7,2.4,3.2,2.8,4.6l0,0c0,2.5-0.3,4.9-0.8,7.2c-0.5,2.3-1.3,3.5-2.3,3.5l0,0c-0.1,0-0.3,0.1-0.5,0.2
			c-0.2,0.1-0.3,0.4-0.3,0.9l0,0c0,0.4-0.2,1-0.7,1.8c-0.5,0.7-1.1,1.4-1.9,2.1l0,0c-2.5,1.8-4.5,2.7-6.1,2.7l0,0
			c-1.2,0-2-0.6-2.4-1.9l0,0c-0.2-0.2-0.5-0.6-0.7-1c-0.2-0.4-0.5-0.7-0.8-0.7l0,0c-0.1,0-0.3-0.2-0.6-0.6c-0.3-0.4-0.4-0.9-0.4-1.6
			l0,0c0-0.3,0.1-0.7,0.4-1.1c0.3-0.4,0.5-0.6,0.6-0.8l0,0c0.7,0,1.8-1.3,3.4-4c1.6-2.6,2.4-4.4,2.4-5.3l0,0c0-0.7-0.1-1.1-0.2-1.2
			c-0.2-0.1-0.7-0.1-1.6-0.1l0,0c-8.8,3.9-14.3,6.9-16.4,8.9l0,0c-0.3,0.7-0.6,1.1-0.8,1.3c-0.2,0.2-0.5,0.3-0.9,0.3l0,0
			c0-1-3,2.8-9,11.5l0,0c-0.2,0.2-0.5,0.9-0.8,2c-0.3,1.1-0.4,2.1-0.4,2.9l0,0c-0.2,0.9-0.3,1.4-0.3,1.5l0,0c0,0.4,0.2,0.9,0.6,1.3
			c0.4,0.4,0.9,0.9,1.6,1.4c0.7,0.5,1.3,1,2,1.6l0,0c5.9,4.4,10,7.7,12.3,9.9c2.3,2.2,3.7,4,4.1,5.5l0,0c1.5,2.3,2.2,4.3,2.2,6.1
			l0,0c0,1.4-0.5,2.5-1.5,3.6s-2.5,2-4.6,2.9l0,0c-1.2,0.6-3.3,1-6.2,1.4c-2.9,0.4-5.8,0.6-8.6,0.6l0,0
			C261.4,116.9,259.7,116.8,257.9,116.6L257.9,116.6z M320.3,114.7c-1.8-0.3-3.6-1.6-5.5-3.7c-1.9-2.1-3.1-4-3.6-5.8l0,0
			c0-0.2-0.1-0.5-0.3-0.8s-0.4-0.5-0.5-0.6l0,0c-0.4-0.3-0.7-2.2-0.7-5.6l0,0c0-2.7,0.1-5.5,0.4-8.5c0.3-2.9,0.6-5.3,1.1-7.1l0,0
			l3-9l2.4-6.8l4.6-9.8l-6.8-1.9c-0.8-0.1-1.4-0.5-1.9-1.2c-0.5-0.7-0.8-1.3-0.8-1.8l0,0c0-0.9,0.5-2,1.4-3.3c1-1.3,1.7-1.9,2.3-1.9
			l0,0c0.3,0.1,1.2,0.2,2.7,0.2l0,0c3.4,0,5.9-0.2,7.6-0.5l0,0c1.1-0.5,1.9-1.4,2.4-2.7l0,0c0.4-0.9,1-2,1.6-3.4
			c0.6-1.3,1.2-2.6,1.8-3.7l0,0c0.3-0.7,0.9-1.7,1.6-3.1c0.7-1.4,1.7-3,2.8-4.8l0,0c0.2-0.3,0.7-1.1,1.5-2.5
			c0.8-1.3,1.8-2.4,2.9-3.3l0,0c0.8-0.8,1.7-1.2,2.9-1.2l0,0c1.1,0,2.6,0.7,4.4,2.2l0,0c0.2,0.3,0.5,0.8,0.9,1.3
			c0.4,0.6,0.6,1.1,0.6,1.5l0,0c0,0.5-0.4,1.4-1.3,2.9l0,0c-0.7,1.4-1.3,2.6-1.9,3.6c-0.6,1.1-1.2,2-1.6,2.8l0,0
			c-1.3,2.3-2.3,3.9-2.9,5.1l0,0c-1.1,1.5-1.7,2.6-1.7,3.4l0,0c0,0.8,0.7,1.2,2.2,1.2l0,0c1.6,0,4.2-0.3,7.9-1l0,0
			c1.6-0.2,2.7-0.3,3.2-0.3l0,0c4,0,6.1,1.6,6.4,4.9l0,0c0.1,0.7,0.2,1.5,0.2,2.4l0,0c0,1.6-0.5,2.5-1.6,2.9
			c-1.1,0.3-3.5,0.5-7.2,0.5l0,0c-3.6,0.6-7.3,0.8-11.2,0.8l0,0c-0.7,0-1.4,0-2.3,0.1c-0.8,0-1.7,0.2-2.6,0.4l0,0
			c-0.9,0.2-1.5,0.6-1.9,1c-0.4,0.5-0.8,1.2-1.3,2.2l0,0c-0.3,0.3-1.1,1.6-2.4,3.9l0,0c-1.6,3.3-2.6,5.2-3,5.9l0,0
			c-3,9-5.3,18.3-6.8,27.7l0,0c-0.2,1.8-0.3,2.9-0.3,3.4l0,0c0,1.7,0.6,2.9,1.7,3.6c1.1,0.7,3,1,5.8,1l0,0c3.8,0,7.1-0.4,10-1.2l0,0
			c3.4-1.5,5.9-2.7,7.6-3.7l0,0c1-0.6,2-1.1,2.8-1.6c0.8-0.5,1.4-0.9,1.8-1.1l0,0c0.3-0.7,0.7-1,1.2-1l0,0c0.9,0,1.7,0.9,2.4,2.7
			l0,0c0,1.8-0.4,3.4-1.2,4.7c-0.8,1.4-2.8,2.9-5.9,4.7l0,0c-6.5,4.2-13.1,6.2-19.6,6.2l0,0C323.6,115.2,321.9,115.1,320.3,114.7
			L320.3,114.7z"/>
	</g>
</g>
</svg>
