<?xml version="1.0" encoding="utf-8"?>
<!-- Generator: Adobe Illustrator 24.1.0, SVG Export Plug-In . SVG Version: 6.00 Build 0)  -->
<svg version="1.1" id="Layer_1" xmlns="http://www.w3.org/2000/svg" xmlns:xlink="http://www.w3.org/1999/xlink" x="0px" y="0px"
	 viewBox="0 0 1080 417.7" style="enable-background:new 0 0 1080 417.7;" xml:space="preserve">
<style type="text/css">
	.st0{fill:#010101;}
	.st1{fill:#F47829;}
	.st2{fill:#EC2227;}
	.st3{fill:#FFFFFF;}
</style>
<g>
	<g id="logo-logo_1_" transform="matrix(1.5745007680491552 0 0 1.5745007680491552 512 437.4501309046606)">
		<g transform="matrix(0.30529451148382114 0 0 -0.30529451148382114 -0.07693421689401703 33.12170684539123)">
			<path class="st0" d="M-994,547.5c7.3-65.6,62.9-116.7,130.4-116.7h54.7c67.6,0,123.2,51.1,130.4,116.7H-994"/>
		</g>
		<g transform="matrix(0.30529451148382114 0 0 -0.30529451148382114 -29.650813544331754 -77.91787580992377)">
			<path class="st1" d="M-751.7,483.8H-898V409h146.3V483.8"/>
		</g>
		<g transform="matrix(0.30529451148382114 0 0 -0.30529451148382114 29.260341864143925 -77.91787580992377)">
			<path class="st2" d="M-921.4,483.8V409h147.7v74.8H-921.4"/>
		</g>
		<g transform="matrix(0.30529451148382114 0 0 -0.30529451148382114 -44.47744149454337 -43.06102760851431)">
			<path class="st2" d="M-788.8,499.5h-60.6v-79.3h60.6V499.5"/>
		</g>
		<g transform="matrix(0.30529451148382114 0 0 -0.30529451148382114 0.0009158835345033367 -43.06102760851431)">
			<path class="st1" d="M-911.2,420.2h150v79.3h-150V420.2"/>
		</g>
		<g transform="matrix(0.30529451148382114 0 0 -0.30529451148382114 44.40142316118403 -43.06102760851431)">
			<path class="st2" d="M-883.5,499.5v-79.3h60.2v79.3H-883.5"/>
		</g>
		<g transform="matrix(0.30529451148382114 0 0 -0.30529451148382114 29.258815391586438 -8.203263523570314)">
			<path class="st1" d="M-920.7,510.6v-74.8h146.3v74.8H-920.7"/>
		</g>
		<g transform="matrix(0.30529451148382114 0 0 -0.30529451148382114 -29.652340016889184 -8.203263523570314)">
			<path class="st2" d="M-751,510.6h-147.7v-74.8H-751V510.6"/>
		</g>
		<g transform="matrix(0.30529451148382114 0 0 -0.30529451148382114 -0.07693421689390334 -120.0317271965595)">
			<path class="st0" d="M-762.1,482.1v-75.2c0-8.1-6.5-14.6-14.6-14.6c-8.1,0-14.6,6.5-14.6,14.6v82.6c-5.8,0.8-11.6,1.3-17.6,1.3
				h-12.8v-83.9c0-8.1-6.5-14.6-14.6-14.6s-14.6,6.5-14.6,14.6v83.9h-12.8c-5.1,0-10.2-0.4-15.2-1v-82.9c0-8.1-6.5-14.6-14.6-14.6
				c-8.1,0-14.6,6.5-14.6,14.6V483c-47.6-17.1-82.4-60.9-86.4-113.4h316.3C-682,421.1-715.7,464.4-762.1,482.1"/>
		</g>
		<g transform="matrix(0.30529451148382114 0 0 -0.30529451148382114 -0.0006105890230401201 32.966311939045994)">
			<path class="st3" d="M-836.3,536.1l15.3-31l34.2-5l-24.7-24.1l5.8-34l-30.6,16.1l-30.6-16.1l5.8,34l-24.7,24.1l34.2,5
				L-836.3,536.1"/>
		</g>
		<g transform="matrix(0.30529451148382114 0 0 -0.30529451148382114 0 48.974429648700124)">
			<path class="st0" d="M-658.2,761.3V633.6l-3.9-35.5c-8.3-74.9-71.4-131.3-146.7-131.3h-54.7c-75.4,0-138.5,56.4-146.7,131.3
				l-3.9,35.5v127.6h-32.8V632.7l4.1-38.2C-1032.9,503-955.7,434-863.6,434h10.7V262.1h-177.8v-32.8h388.9v32.8h-178.3V434h11.2
				c92.1,0,169.2,69,179.4,160.5l4,36.4l0.1,130.4H-658.2"/>
		</g>
	</g>
	<g transform="matrix(1.5745007680491552 0 0 1.5745007680491552 512 743.8703437176664)">
		<path class="st2" d="M-143.8-319.5c-1.3-0.3-2.7-1.2-4.1-2.7c-1.4-1.5-2.3-3-2.7-4.3l0,0c0-0.2-0.1-0.4-0.3-0.6
			c-0.2-0.2-0.3-0.4-0.4-0.4l0,0c-0.3-0.3-0.5-1.6-0.5-4.1l0,0c0-2,0.1-4.1,0.3-6.3c0.2-2.2,0.5-3.9,0.8-5.3l0,0l2.3-6.7l1.7-5
			l3.4-7.3l-5-1.4c-0.6-0.1-1.1-0.4-1.5-0.9c-0.4-0.5-0.6-1-0.6-1.4l0,0c0-0.7,0.4-1.5,1.1-2.5c0.7-1,1.3-1.4,1.7-1.4l0,0
			c0.3,0.1,0.9,0.1,2,0.1l0,0c2.5,0,4.4-0.1,5.7-0.4l0,0c0.8-0.3,1.4-1,1.8-2l0,0c0.3-0.7,0.7-1.5,1.2-2.5c0.5-1,0.9-1.9,1.3-2.7
			l0,0c0.2-0.5,0.6-1.3,1.2-2.3s1.2-2.2,2.1-3.6l0,0c0.2-0.2,0.5-0.8,1.1-1.8c0.6-1,1.3-1.8,2.1-2.4l0,0c0.6-0.6,1.3-0.9,2.1-0.9
			l0,0c0.8,0,1.9,0.5,3.3,1.6l0,0c0.2,0.3,0.4,0.6,0.7,1c0.3,0.4,0.4,0.8,0.4,1.1l0,0c0,0.3-0.3,1.1-1,2.1l0,0c-0.5,1-1,1.9-1.4,2.7
			c-0.5,0.8-0.9,1.5-1.2,2.1l0,0c-1,1.7-1.7,2.9-2.1,3.8l0,0c-0.8,1.1-1.3,1.9-1.3,2.5l0,0c0,0.6,0.5,0.9,1.6,0.9l0,0
			c1.2,0,3.1-0.2,5.9-0.7l0,0c1.2-0.2,2-0.3,2.4-0.3l0,0c2.9,0,4.5,1.2,4.8,3.6l0,0c0.1,0.5,0.1,1.1,0.1,1.8l0,0
			c0,1.2-0.4,1.9-1.2,2.1c-0.8,0.3-2.6,0.4-5.3,0.4l0,0c-2.7,0.4-5.4,0.6-8.3,0.6l0,0c-0.5,0-1.1,0-1.7,0.1c-0.6,0-1.3,0.1-1.9,0.3
			l0,0c-0.7,0.2-1.2,0.4-1.5,0.7c-0.3,0.3-0.6,0.9-0.9,1.6l0,0c-0.3,0.3-0.8,1.2-1.8,2.9l0,0c-1.2,2.4-1.9,3.9-2.3,4.4l0,0
			c-2.3,6.7-3.9,13.6-5,20.6l0,0c-0.2,1.3-0.3,2.2-0.3,2.5l0,0c0,1.2,0.4,2.1,1.3,2.6c0.8,0.5,2.3,0.7,4.3,0.7l0,0
			c2.8,0,5.3-0.3,7.4-0.9l0,0c2.5-1.1,4.4-2,5.6-2.8l0,0c0.8-0.4,1.4-0.8,2.1-1.2c0.6-0.4,1.1-0.7,1.3-0.8l0,0
			c0.3-0.5,0.6-0.8,0.9-0.8l0,0c0.7,0,1.2,0.7,1.7,2l0,0c0,1.3-0.3,2.5-0.9,3.5s-2,2.2-4.4,3.5l0,0c-4.9,3.1-9.7,4.6-14.6,4.6l0,0
			C-141.4-319.1-142.7-319.2-143.8-319.5L-143.8-319.5z M-107.7-325.4h-0.7c-1.3,0-2.2-0.3-2.9-0.9l0,0c-0.7-0.6-1.1-1-1.3-1.4
			c-0.2-0.3-0.3-0.7-0.3-1.3l0,0c0-0.3,0.3-1.9,0.9-4.6l0,0l1.1-4.1c0.8-3.4,1.6-6.3,2.3-8.5l0,0c0.3-2.1,1-4.3,1.9-6.7
			c1-2.3,1.5-3.8,1.7-4.3l0,0c0.7-2.4,2-6.2,3.9-11.3l0,0l3.8-10.2c2.9-8,4.7-12.8,5.3-14.6l0,0l2-5.5c0-1.3,0.7-2,2-2l0,0
			c1.2,0,2.1,0.6,2.9,1.9c0.8,1.3,1.2,2.8,1.2,4.5l0,0c0,1.3-0.2,2.5-0.7,3.6l0,0c-1.2,2.5-2.4,5.7-3.8,9.5
			c-1.4,3.8-2.3,6.3-2.7,7.5l0,0c-2.8,8-4.9,13.4-6.1,16.1l0,0c0,0.3-0.1,0.9-0.4,1.8c-0.2,0.8-0.5,1.6-0.9,2.3l0,0l-1.4,2.8
			c0,0.2-0.5,2-1.4,5.3l0,0c-1.2,3.6-1.9,6.2-2.1,7.9l0,0c0.4-0.8,1.3-1.9,2.6-3.5c1.3-1.5,2.6-2.8,3.8-3.8l0,0
			c4.6-3.9,7.4-6.3,8.5-7l0,0c1-0.6,1.8-1.1,2.5-1.6c0.7-0.5,1.1-0.8,1.4-1l0,0c0-0.4,0.5-0.6,1.4-0.6l0,0c0.3,0,0.5,0,0.6-0.1
			c0-0.1,0.1-0.3,0.1-0.6l0,0c0-0.6,1-1.1,2.9-1.6c1.9-0.5,3.6-0.7,5.1-0.7l0,0c1,0,1.8,0.2,2.4,0.6c0.6,0.4,1.3,1.3,2.3,2.8l0,0
			c1.4,2,2.1,4.2,2.1,6.5l0,0c0,1.3-0.3,2.7-0.8,4.1l0,0c0,0.7-0.1,1.7-0.3,3.1c-0.2,1.4-0.3,2.6-0.3,3.6l0,0l-0.8,4h2
			c0.6,0,1.1,0.1,1.7,0.3c0.5,0.2,0.9,0.3,1.1,0.4l0,0c0.8,0.9,1.4,1.4,2,1.4l0,0c0.8,0,1.1,0.3,1.1,0.9l0,0c0,0.3-0.2,0.7-0.5,1.3
			c-0.3,0.5-0.8,0.9-1.4,1.3l0,0c-2.2,1.3-4,2-5.5,2l0,0c-1.4,0-2.9-0.7-4.4-2l0,0c-1.8-1.8-2.7-4.1-2.7-6.7l0,0
			c0-1.3,0.2-2.9,0.7-4.8l0,0l0.4-4c0.2-2,0.3-3.3,0.3-3.8l0,0c0-1.9-0.5-2.9-1.4-2.9l0,0c-1.2,0-3.4,1-6.7,3.1
			c-3.3,2-6.7,4.6-10.2,7.7c-3.5,3.1-6.3,6.1-8.4,9.2l0,0c-1.3,1.6-2.3,2.8-3.2,3.6C-106.1-325.9-106.9-325.5-107.7-325.4
			L-107.7-325.4z M-31.9-323c-2.1,1.8-4.6,2.8-7.5,2.8l0,0c-2.1,0-4.1-0.5-6-1.5c-1.9-1-3.4-2.4-4.7-4.1l0,0
			c-1.1-1.3-1.9-2.9-2.4-4.5c-0.5-1.7-0.7-3.7-0.7-6.1l0,0c0-0.8,0.1-2.5,0.3-5l0,0c0.2-3.1,1.3-6.3,3.1-9.7c1.8-3.3,4-6.3,6.7-9
			c2.7-2.6,5.3-4.5,7.9-5.5l0,0c1.3-0.8,2.5-1.3,3.6-1.3l0,0c0.6,0,1.2,0,1.7,0.1c0.6,0.1,1.2,0.2,1.9,0.3l0,0
			c1.8,0.3,3.2,0.6,4.2,1.1c1,0.5,1.8,1.2,2.5,2.1l0,0c2.1,2.1,3.1,4.5,3.1,7.3l0,0c-0.3,2-1.6,4.3-3.9,6.9s-5,4.7-8.1,6.3l0,0
			c-1.5,0.5-3.2,0.8-5.1,0.8l0,0c-2.6,0-4.7-0.5-6.3-1.6l0,0c-0.8-0.3-1.3-0.4-1.8-0.4l0,0c-0.8,0-1.3,0.5-1.7,1.5
			c-0.4,1-0.7,2.8-1.1,5.5l0,0c-0.1,0.6-0.1,1.4-0.1,2.5l0,0c0,4.3,1.4,6.6,4.3,7l0,0c1.9,0.4,3.3,0.6,4.1,0.6l0,0
			c1,0,2.1-0.3,3.4-1l0,0l2.4-1.4c0.5-0.3,1-0.6,1.4-1c0.4-0.4,0.8-0.8,1.1-1.1l0,0c0.2-0.2,0.4-0.4,0.8-0.8
			c0.3-0.4,0.6-0.6,0.9-0.7c0.3-0.1,0.6-0.2,0.8-0.2l0,0c0.3,0,0.7,0.2,1.1,0.6c0.4,0.4,0.8,0.6,1,0.8l0,0c0.8,0,0.9,0.5,0.5,1.6
			c-0.4,1-1.3,2.3-2.7,3.6C-28.6-325.3-30.1-324.1-31.9-323L-31.9-323z M-32-349.6c1.4-0.6,2.9-1.6,4.3-3.1c1.5-1.5,2.2-2.8,2.2-3.8
			l0,0c0-1-0.4-1.8-1.1-2.5c-0.8-0.7-1.8-1-3.1-1l0,0c-1,0-1.8,0.1-2.3,0.3l0,0c-1.2,0.3-2.6,1.2-4.1,2.7c-1.6,1.5-3,3-4.1,4.5
			c-1.2,1.5-1.6,2.4-1.4,2.6l0,0c0.4,0.8,2,1.1,4.9,1.1l0,0C-34.9-348.8-33.3-349.1-32-349.6L-32-349.6z M-18.1-290.5l-1,0.1
			c-0.7,0-1.2-0.4-1.6-1.1l0,0c-0.4-0.6-0.6-1.3-0.6-2.1l0,0c0-0.6,0.2-2,0.6-4.3l0,0c0.9-3.5,1.4-5.9,1.4-7.3l0,0
			c0-0.4,0.1-1,0.3-1.8c0.2-0.8,0.3-1.5,0.4-2.2l0,0c0.3-0.6,0.7-1.5,0.9-2.7c0.3-1.2,0.4-2.3,0.4-3.2l0,0c0-0.4,0.1-0.9,0.4-1.4
			c0.3-0.5,0.7-1,1.1-1.3l0,0c0-0.5,0.1-1.3,0.4-2.3c0.2-1.1,0.4-1.8,0.5-2.2l0,0c0.4-2.3,2.1-7.6,4.9-16.1
			c2.8-8.5,5.3-15.3,7.3-20.5l0,0c0.9-2.1,1.6-4,2-5.8c0.4-1.8,0.6-3.1,0.6-4.1l0,0c0-0.3,0.1-0.7,0.3-0.9c0.2-0.3,0.6-0.7,1.1-1.2
			l0,0c0.6-0.6,1.1-0.9,1.6-0.9l0,0c0.4,0,0.9,0.2,1.4,0.5c0.5,0.3,1,0.7,1.5,1.1l0,0c0.5,0.8,0.9,1.5,1.2,2.1
			c0.3,0.7,0.5,1.4,0.5,2.1l0,0c0,0.2-0.1,1-0.3,2.4l0,0c0,1.8-0.4,3.2-1.1,4.3s-1,1.6-0.9,1.6l0,0c3.8-1.8,7.1-2.6,10-2.6l0,0
			c3.5,0,6.3,1.1,8.2,3.4c2,2.3,3,5.2,3,8.8l0,0c0,1.5-0.4,3.3-1.3,5.5c-0.9,2.1-1.7,3.6-2.6,4.3l0,0c-0.5,0-1.2,0.9-2,2.6l0,0
			c-1.1,1.3-2.9,2.7-5.4,4.2c-2.5,1.5-4.2,2-5.3,1.7l0,0c-0.1,0-0.2,0-0.4,0.1c-0.2,0.1-0.3,0.3-0.3,0.6l0,0c0,0.3-1.4,1-4.3,1.9
			c-2.8,0.9-5.2,1.4-7,1.4l0,0c-1,0-1.8-0.1-2.3-0.2c-0.5-0.1-1-0.4-1.5-0.8l0,0c-0.6,0.6-0.9,1.1-0.9,1.6l0,0c0,0.9-0.4,2.6-1.3,5
			c-0.8,2.4-1.5,3.6-2,3.6l0,0c-0.1,0.1-0.2,0.3-0.3,0.5c-0.1,0.3,0,0.5,0.3,0.9l0,0c0,0.3,0,0.8-0.1,1.8c-0.1,0.9-0.3,1.6-0.6,2.1
			l0,0c0,0.8-0.1,1.8-0.4,3.1c-0.2,1.3-0.5,2.3-0.9,2.9l0,0c0,1-0.1,2-0.4,2.9c-0.3,1-0.6,1.5-0.9,1.5l0,0c-0.5,0.2-0.7,1.4-0.7,3.6
			l0,0c-0.1,2.1-0.5,3.7-1.3,4.9C-16.2-291.1-17.1-290.5-18.1-290.5L-18.1-290.5z M-2.9-332.4c1.2,0,3.8-0.6,7.6-1.9
			c3.8-1.3,6.5-2.6,8-3.8l0,0c1.8-1.5,3.2-3.1,4.3-4.8c1.1-1.7,1.6-3.5,1.6-5.2l0,0c0-1.3-0.4-2.6-1.1-3.7l0,0
			c-0.6-0.9-1.6-1.4-3-1.4l0,0c-1.7,0-3.7,0.6-6,1.7c-2.3,1.2-4.4,2.7-6.3,4.6l0,0c-1.5,1.5-2.8,3.7-4,6.5c-1.2,2.8-1.8,5-1.8,6.6
			l0,0C-3.7-332.9-3.4-332.4-2.9-332.4L-2.9-332.4z M36.6-323c-0.7-0.5-1.1-1-1.4-1.4c-0.2-0.4-0.4-1.1-0.4-1.9l0,0
			c0-0.8,0-1.4,0.1-1.9l0,0c0.2-2.8,0.9-6.2,1.9-9.9l0,0l0.6-2.5c0.2-2.1,1.7-6.5,4.4-13.2c2.7-6.7,4.9-11.3,6.5-13.7l0,0
			c0.7-0.4,1.4-0.6,2.1-0.6l0,0c1.1,0,2,0.4,2.8,1.1l0,0c0.5,0.3,0.7,1,0.7,1.9l0,0c0,0.8-0.3,2.1-0.9,3.7c-0.6,1.6-1.7,4-3.2,7.2
			l0,0c-0.3,0.7-0.9,1.9-1.7,3.8c-0.8,1.8-1.2,2.9-1.2,3.3l0,0c0,0.2,0,0.2,0.1,0.2l0,0c0.2,0,0.3-0.1,0.5-0.2
			c0.2-0.1,0.3-0.2,0.5-0.3l0,0c0.9-1.6,3.2-3.8,6.7-6.5c3.6-2.8,6-4.5,7.3-5.1l0,0c0.6-0.3,1.3-0.7,2.3-1c0.9-0.3,1.6-0.6,1.9-0.7
			l0,0c1.3-0.7,2.9-1,4.8-1l0,0c1.2,0,2.2,0.2,3.1,0.6c0.9,0.4,1.5,0.9,1.8,1.7l0,0c0.1,0.6,0.3,1,0.7,1.4c0.4,0.3,0.6,0.6,0.8,0.6
			l0,0c0.2,0,0.4,0.1,0.5,0.3c0.1,0.2,0.1,0.4,0.1,0.4l0,0c0,0.6-0.3,1-1,1.1c-0.7,0.1-1.9,0.2-3.6,0.3l0,0
			c-0.9,0.1-1.9,0.3-2.9,0.6c-1,0.3-2,0.7-3,1.3l0,0c-4.7,2.7-8.2,4.8-10.5,6.3c-2.3,1.5-4.6,3.6-7,6.1l0,0c-0.9,1-2.1,2.8-3.6,5.4
			l0,0c-0.6,0.6-1.2,2.1-1.8,4.6c-0.6,2.5-0.9,4-0.9,4.6l0,0c-0.1,0.3-0.3,0.7-0.5,1.5c-0.3,0.7-0.6,1.4-1.1,2.1l0,0
			c-1,1.3-1.8,2-2.5,2l0,0C38.9-321,37.9-321.6,36.6-323L36.6-323z M88.1-320.5c-1,0-1.8-0.2-2.4-0.5c-0.6-0.3-1.4-1-2.5-1.9l0,0
			c-2.8-2.9-4.1-5.6-4.1-8l0,0c0-0.6,0-1,0.1-1.3l0,0c0.3-0.6,0.4-1.2,0.3-1.8c0-0.6-0.1-1-0.1-1.1l0,0c-0.3-0.3-0.5-0.6-0.5-0.7
			c0-0.1,0.1-0.2,0.2-0.4c0.2-0.1,0.3-0.3,0.4-0.4l0,0c0.5,0,0.7-0.5,0.5-1.4l0,0c-0.2-0.7,0.2-2.2,1-4.5c0.8-2.3,1.9-4.4,3.1-6.3
			l0,0c0.9-1.5,2.3-3.4,4.1-5.7c1.8-2.3,3.4-4,4.8-5.1l0,0c2-1.8,3.8-3.1,5.4-3.9c1.6-0.8,3.3-1.5,5.3-1.9l0,0
			c1.7-0.4,2.8-0.6,3.4-0.6l0,0c0.6,0,1.1,0.1,1.6,0.4c0.5,0.3,1.1,0.8,1.8,1.6l0,0c2.3,1,3.8,2.3,4.7,3.8c0.9,1.5,1.3,3.9,1.3,7.2
			l0,0c0,5.4-2.2,11.3-6.7,17.7l0,0c-1.9,2.8-3.7,4.9-5.4,6.3c-1.7,1.5-3.9,3-6.6,4.7l0,0c-1.8,1.3-3.4,2.2-4.8,2.7
			C91.6-320.9,89.9-320.6,88.1-320.5L88.1-320.5z M100.1-333.8c2-2.3,3.6-4.4,4.8-6.4c1.2-2,2.4-4.6,3.5-7.7l0,0
			c0.4-1.4,0.6-3.1,0.6-5.1l0,0c0-2.5-0.3-3.9-1-4.3l0,0c-0.8-0.4-1.7-0.6-2.5-0.6l0,0c-1.8,0-3.8,0.8-5.8,2.5l0,0
			c-2.4,2.1-4.6,4.7-6.5,7.7c-1.9,3-3.9,6.8-5.9,11.3l0,0c-0.8,1.8-1.3,3.5-1.3,5.1l0,0c0,1.2,0.3,2.3,0.9,3
			c0.6,0.8,1.5,1.1,2.6,1.1l0,0C92.3-327,95.8-329.3,100.1-333.8L100.1-333.8z M156.6-316.2c-2.1,0.5-3.5-0.4-4.3-2.8l0,0
			c-1.2-3.3-1.8-6.7-1.8-10.3l0,0c0-1,0-1.7,0.1-2.1l0,0l0.3-2.6l-4.9,3.9c-2.7,2.3-5.3,4.1-8,5.3c-2.6,1.2-5,1.8-7.2,1.8l0,0
			c-1.4-0.3-2.8-0.9-4.1-1.8c-1.3-1-2.2-2.1-2.8-3.5l0,0c-0.3-0.7-0.5-1.7-0.5-3l0,0c0-3.1,0.8-6.8,2.5-11c1.7-4.2,3.8-7.7,6.3-10.5
			l0,0c3.6-5.4,7.6-8.1,12.1-8.1l0,0c2.1,0,4.2,0.6,6.3,1.9l0,0c2.1,0.8,3.3,1.3,3.7,1.3l0,0c0.5,0,0.9-0.2,1.1-0.6
			c0.2-0.4,0.5-1.2,0.7-2.3l0,0c0.9-3.9,1.8-7.1,2.6-9.7l0,0c1.8-5.5,3.4-9.9,4.8-13.3c1.3-3.3,3-7,4.9-11l0,0
			c0.8-1.8,1.6-2.9,2.2-3.5c0.6-0.5,1.3-0.8,2.1-0.7l0,0c1.8,0,3.3,1.3,4.3,3.8l0,0c0.2,0.6,0.4,1.2,0.4,1.8l0,0
			c0,0.6-0.2,1.4-0.7,2.4l0,0c-2.2,3.8-4.9,9.9-8,18.4c-3.2,8.5-5.6,15.9-7.4,22.2l0,0c-0.8,2.8-1.4,6.7-1.9,11.9
			c-0.5,5.2-0.8,9.5-0.8,12.9l0,0c0,1.5,0.1,2.6,0.3,3.3l0,0c0.4,1.4,0.6,2.7,0.6,3.8l0,0c0,0.8-0.2,1.4-0.6,1.7
			C158.2-316.5,157.5-316.3,156.6-316.2L156.6-316.2z M135.4-330.1c1.9-0.4,4.3-1.7,7-3.8l0,0c0.5-0.3,1.7-1.2,3.6-2.6
			c1.9-1.4,3.4-2.9,4.4-4.5c1-1.6,1.7-3.4,2.1-5.4l0,0c0.1-1.5-0.1-2.7-0.4-3.7c-0.4-1-1.1-1.9-2.2-2.8l0,0
			c-0.8-0.6-1.9-0.9-3.1-0.9l0,0c-2.3,0-4.4,0.9-6.3,2.8l0,0c-2.3,2-4.3,4.6-6,7.8c-1.8,3.2-3.1,6.9-4,11l0,0
			c-0.3,1.6,0.6,2.4,2.5,2.4l0,0C134-329.9,134.8-330,135.4-330.1L135.4-330.1z M186.7-320c-1.2,0.2-2.1,0.3-2.6,0.3l0,0
			c-3.1,0-5.7-1-7.7-2.9c-2-1.9-3-4.6-3-8l0,0c-0.3-3.7,0.5-8.3,2.5-13.7c2-5.4,4.4-10,7.5-13.7l0,0c2.1-2.4,3.9-4.4,5.4-5.9
			c1.5-1.5,2.9-2.5,4.1-3l0,0c1.8-0.8,3.7-1.1,5.9-1.1l0,0c1.5,0.3,3,1,4.5,1.9c1.5,0.9,2.2,1.8,2.2,2.8l0,0l0.6,0.6
			c0.5,0,1,0.6,1.4,1.8c0.4,1.2,0.6,2.5,0.6,4l0,0c0,1.2-0.2,2.2-0.6,3l0,0c-0.3,1.6-0.9,3-1.7,4.1c-0.8,1.2-1.6,1.8-2.3,1.8l0,0
			c-0.9,0-1.4,0.2-1.4,0.7l0,0c0,0.3-0.2,0.5-0.5,0.5l0,0c-0.4,0-0.9-0.2-1.5-0.7c-0.6-0.5-1-1.1-1.3-1.8l0,0c0-0.2,0.2-1,0.5-2.1
			c0.3-1.2,0.7-2.5,1-3.9l0,0c0.3-1,0.4-1.9,0.4-2.6l0,0c0-1.7-0.6-2.5-1.9-2.5l0,0c-0.7,0-1.3,0.2-2,0.5l0,0
			c-3.3,1.8-6.3,4.8-8.9,8.8c-2.6,4-4.8,9.5-6.5,16.6l0,0c-0.4,1.8-0.6,3.3-0.6,4.4l0,0c0,0.8,0.1,1.5,0.2,2
			c0.1,0.5,0.3,0.8,0.4,0.9l0,0c0.4,0.2,1.3,0.3,2.6,0.3l0,0c3.1,0,5.3-0.4,6.5-1.1l0,0c2.7-1.4,5.6-3.4,8.9-5.8l0,0
			c0.3-0.2,0.8-0.7,1.5-1.3c0.7-0.6,1.3-1.1,1.9-1.3l0,0c0.6-0.9,1.1-1.5,1.6-1.7c0.5-0.2,1.3-0.3,2.4-0.3l0,0
			c1.1,0.3,2,0.8,2.6,1.3c0.7,0.5,0.7,1,0,1.3l0,0c-0.3,0-0.4,0.1-0.5,0.3c-0.1,0.2-0.1,0.3-0.1,0.4l0,0c0.2,0.4-0.5,1.5-2,3.1
			c-1.5,1.7-3.2,3.2-5,4.7c-1.8,1.5-3.1,2.2-3.8,2.2l0,0c-0.3,0-0.6,0-0.9,0.1c-0.2,0.1-0.4,0.3-0.4,0.6l0,0c0,0.3-1.3,1.1-3.8,2.3
			C190.3-321.1,188.3-320.3,186.7-320L186.7-320z M218.4-323.1c-0.2-0.5-0.6-1-1.2-1.6c-0.5-0.5-0.8-0.9-0.8-1.1l0,0
			c0-0.9-0.2-1.6-0.6-2.1l0,0c-0.2-0.2-0.2-0.5-0.2-1.1l0,0c0-1.3,0.6-3.6,1.9-6.8c1.3-3.2,3-6.7,5.1-10.5l0,0
			c0.5-0.5,1.2-1.4,1.9-2.6c0.8-1.2,1.3-2,1.6-2.1l0,0c0-0.3,0.1-0.7,0.4-0.9c0.3-0.3,0.5-0.4,0.9-0.4l0,0v-0.7
			c0-0.8,1.4-2.6,4.1-5.5c2.8-2.9,5-4.9,6.8-5.9l0,0c2.1-1.4,4.2-2.1,6.4-2.1l0,0c1.5,0,2.8,0.4,3.9,1.3l0,0
			c0.4,0.5,2.4,2.3,5.8,5.4l0,0l4.6,4.1l-2.3,6.3c-0.8,2.3-1.1,4.3-1.1,6.1l0,0c0,3.2,0.9,6.2,2.8,9.2l0,0c0.4,0.9,1.2,1.8,2.5,2.6
			c1.2,0.8,2.5,1.3,3.8,1.5l0,0c1.8,0.3,2.7,1.3,2.7,2.8l0,0c0,1.7-0.8,2.7-2.3,3l0,0c-0.3,0.1-0.8,0.1-1.5,0.1l0,0
			c-4.9,0-9.2-3.5-12.8-10.4l0,0c-0.3-0.5-0.8-1.4-1.3-2.8c-0.5-1.3-0.9-2.3-0.9-2.8l0,0c-0.5,0.7-1.1,1.5-1.9,2.4
			c-0.8,0.9-1.5,1.7-2.1,2.4l0,0c-9.1,9.1-16.3,13.7-21.6,13.7l0,0C221.3-321.8,219.8-322.3,218.4-323.1L218.4-323.1z M223-330.1
			c0,0.4,0.4,0.6,1.3,0.4c0.9-0.2,2-0.6,3.3-1.3c1.3-0.7,2.6-1.5,3.9-2.6l0,0c7.2-6.2,12.4-11.6,15.6-16.2l0,0l2.7-4.5
			c-0.8-1.7-1.7-3-2.6-3.8c-0.9-0.8-1.7-1.2-2.5-1.2l0,0c-1.7,0-4.5,2.2-8.3,6.6c-3.8,4.4-7.2,9.6-10.3,15.5l0,0
			c-0.8,1.4-1.4,2.9-2,4.3C223.5-331.5,223.1-330.6,223-330.1L223-330.1z M280-318.1c-1.5-0.6-3-1.5-4.4-2.6
			c-1.4-1.1-2.4-2.1-2.9-2.9l0,0c0-0.2,0-0.5,0-0.9c0-0.4,0.1-0.7,0.4-0.8c0.2-0.1,0.7-0.2,1.4-0.2l0,0c1.4,0,3.7,0.2,6.8,0.5l0,0
			c1.8,0,3.9-0.2,6.3-0.7s3.6-1,3.9-1.6l0,0c0.3,0,0.4,0,0.4-0.1l0,0c0-0.2-0.3-0.6-1-1.3l0,0c-0.2,0-0.5-0.1-1.1-0.4
			c-0.6-0.3-1-0.4-1.1-0.4l0,0c0-0.3-0.4-0.8-1.1-1.3c-0.8-0.5-1.6-1-2.5-1.4l0,0c-2.4-2-4.1-3.5-5.1-4.5c-1-1-1.4-1.6-1.1-2.1l0,0
			v-0.6c-0.6,0-1.2-0.8-1.9-2.5c-0.7-1.6-1.1-3.2-1.1-4.6l0,0c0-1.5,0.6-3.6,1.9-6.3c1.3-2.7,2.8-4.9,4.5-6.5l0,0
			c2.3-2.2,5.4-4.5,9.1-6.9c3.7-2.4,6.7-4,8.8-4.6l0,0c1.4-0.6,2.9-0.9,4.3-0.9l0,0c1.3,0,2.5,0.3,3.4,0.9l0,0
			c1.1,0.7,2.2,1.6,3.2,2.9c1.1,1.3,1.7,2.4,2.1,3.4l0,0c0,1.8-0.2,3.6-0.6,5.3c-0.4,1.7-0.9,2.6-1.7,2.6l0,0c-0.1,0-0.2,0-0.4,0.1
			c-0.2,0.1-0.3,0.3-0.3,0.6l0,0c0,0.3-0.2,0.8-0.5,1.3c-0.3,0.5-0.8,1.1-1.4,1.6l0,0c-1.8,1.3-3.4,2-4.5,2l0,0
			c-0.9,0-1.5-0.5-1.7-1.4l0,0c-0.2-0.2-0.3-0.4-0.5-0.8c-0.2-0.3-0.4-0.5-0.6-0.5l0,0c-0.1,0-0.2-0.1-0.4-0.4
			c-0.2-0.3-0.3-0.7-0.3-1.2l0,0c0-0.3,0.1-0.5,0.3-0.8c0.2-0.3,0.4-0.5,0.4-0.6l0,0c0.5,0,1.3-1,2.5-2.9c1.2-2,1.7-3.3,1.7-3.9l0,0
			c0-0.5-0.1-0.8-0.2-0.9c-0.1-0.1-0.5-0.1-1.2-0.1l0,0c-6.5,2.9-10.6,5.1-12.2,6.6l0,0c-0.3,0.5-0.4,0.8-0.6,1
			c-0.1,0.2-0.4,0.3-0.7,0.3l0,0c0-0.8-2.2,2.1-6.7,8.5l0,0c-0.2,0.2-0.3,0.7-0.6,1.5c-0.2,0.8-0.3,1.6-0.3,2.1l0,0
			c-0.2,0.7-0.3,1-0.3,1.1l0,0c0,0.3,0.2,0.7,0.5,1c0.3,0.3,0.7,0.7,1.2,1.1c0.5,0.4,1,0.8,1.5,1.2l0,0c4.4,3.3,7.4,5.7,9.1,7.3
			c1.7,1.6,2.7,3,3.1,4.1l0,0c1.1,1.7,1.6,3.2,1.6,4.5l0,0c0,1-0.4,1.9-1.1,2.6c-0.8,0.8-1.9,1.5-3.4,2.1l0,0
			c-0.9,0.4-2.5,0.8-4.6,1.1c-2.2,0.3-4.3,0.4-6.4,0.4l0,0C282.6-317.8,281.4-317.9,280-318.1L280-318.1z M326.3-319.5
			c-1.3-0.3-2.7-1.2-4.1-2.7c-1.4-1.5-2.3-3-2.7-4.3l0,0c0-0.2-0.1-0.4-0.3-0.6c-0.2-0.2-0.3-0.4-0.4-0.4l0,0
			c-0.3-0.3-0.5-1.6-0.5-4.1l0,0c0-2,0.1-4.1,0.3-6.3c0.2-2.2,0.5-3.9,0.8-5.3l0,0l2.3-6.7l1.8-5l3.4-7.3l-5-1.4
			c-0.6-0.1-1.1-0.4-1.4-0.9c-0.4-0.5-0.6-1-0.6-1.4l0,0c0-0.7,0.4-1.5,1.1-2.5c0.7-1,1.3-1.4,1.7-1.4l0,0c0.3,0.1,0.9,0.1,2,0.1
			l0,0c2.5,0,4.4-0.1,5.6-0.4l0,0c0.8-0.3,1.4-1,1.8-2l0,0c0.3-0.7,0.7-1.5,1.2-2.5c0.5-1,0.9-1.9,1.3-2.7l0,0
			c0.3-0.5,0.6-1.3,1.2-2.3c0.5-1,1.2-2.2,2.1-3.6l0,0c0.2-0.2,0.5-0.8,1.1-1.8c0.6-1,1.3-1.8,2.1-2.4l0,0c0.6-0.6,1.3-0.9,2.1-0.9
			l0,0c0.8,0,1.9,0.5,3.3,1.6l0,0c0.2,0.3,0.4,0.6,0.7,1c0.3,0.4,0.4,0.8,0.4,1.1l0,0c0,0.3-0.3,1.1-1,2.1l0,0c-0.5,1-1,1.9-1.4,2.7
			c-0.5,0.8-0.9,1.5-1.2,2.1l0,0c-1,1.7-1.7,2.9-2.1,3.8l0,0c-0.8,1.1-1.3,1.9-1.3,2.5l0,0c0,0.6,0.5,0.9,1.6,0.9l0,0
			c1.2,0,3.1-0.2,5.9-0.7l0,0c1.2-0.2,2-0.3,2.4-0.3l0,0c2.9,0,4.5,1.2,4.8,3.6l0,0c0.1,0.5,0.1,1.1,0.1,1.8l0,0
			c0,1.2-0.4,1.9-1.2,2.1c-0.8,0.3-2.6,0.4-5.3,0.4l0,0c-2.7,0.4-5.4,0.6-8.3,0.6l0,0c-0.5,0-1.1,0-1.7,0.1c-0.6,0-1.3,0.1-1.9,0.3
			l0,0c-0.7,0.2-1.1,0.4-1.4,0.7c-0.3,0.3-0.6,0.9-0.9,1.6l0,0c-0.3,0.3-0.8,1.2-1.8,2.9l0,0c-1.2,2.4-1.9,3.9-2.3,4.4l0,0
			c-2.3,6.7-3.9,13.6-5,20.6l0,0c-0.2,1.3-0.3,2.2-0.3,2.5l0,0c0,1.2,0.4,2.1,1.3,2.6c0.8,0.5,2.3,0.7,4.3,0.7l0,0
			c2.8,0,5.3-0.3,7.4-0.9l0,0c2.5-1.1,4.4-2,5.6-2.8l0,0c0.8-0.4,1.5-0.8,2.1-1.2c0.6-0.4,1.1-0.7,1.3-0.8l0,0
			c0.2-0.5,0.5-0.8,0.9-0.8l0,0c0.7,0,1.3,0.7,1.8,2l0,0c0,1.3-0.3,2.5-0.9,3.5c-0.6,1-2,2.2-4.4,3.5l0,0c-4.8,3.1-9.7,4.6-14.6,4.6
			l0,0C328.8-319.1,327.5-319.2,326.3-319.5L326.3-319.5z"/>
	</g>
</g>
</svg>
