<?xml version="1.0" encoding="utf-8"?>
<!-- Generator: Adobe Illustrator 24.1.0, SVG Export Plug-In . SVG Version: 6.00 Build 0)  -->
<svg version="1.1" id="Layer_1" xmlns="http://www.w3.org/2000/svg" xmlns:xlink="http://www.w3.org/1999/xlink" x="0px" y="0px"
	 viewBox="0 0 1080 991.5" style="enable-background:new 0 0 1080 991.5;" xml:space="preserve">
<style type="text/css">
	.st0{fill:#010101;}
	.st1{fill:#F47829;}
	.st2{fill:#EC2227;}
	.st3{fill:#FFFFFF;}
</style>
<g>
	<g id="logo-logo" transform="matrix(1.5745007680491552 0 0 1.5745007680491552 512 437.4501309046606)">
		<g transform="matrix(0.30529451148382114 0 0 -0.30529451148382114 -0.07693421689401703 33.12170684539123)">
			<path class="st0" d="M-227.8,190.3C-214.6,71.4-113.9-21.2,8.5-21.2h99.1c122.4,0,223.2,92.5,236.3,211.4H-227.8"/>
		</g>
		<g transform="matrix(0.30529451148382114 0 0 -0.30529451148382114 -29.650813544331754 -77.91787580992377)">
			<path class="st1" d="M132.7,370.1h-265.1V234.6h265.1V370.1"/>
		</g>
		<g transform="matrix(0.30529451148382114 0 0 -0.30529451148382114 29.260341864143925 -77.91787580992377)">
			<path class="st2" d="M-18.2,370.1V234.6h267.6v135.5H-18.2"/>
		</g>
		<g transform="matrix(0.30529451148382114 0 0 -0.30529451148382114 -44.47744149454337 -43.06102760851431)">
			<path class="st2" d="M26,305.8H-83.9V162.1H26V305.8"/>
		</g>
		<g transform="matrix(0.30529451148382114 0 0 -0.30529451148382114 0.0009158835345033367 -43.06102760851431)">
			<path class="st1" d="M-77.6,162.1h271.7v143.7H-77.6V162.1"/>
		</g>
		<g transform="matrix(0.30529451148382114 0 0 -0.30529451148382114 44.40142316118403 -43.06102760851431)">
			<path class="st2" d="M90.8,305.8V162.1h109v143.7H90.8"/>
		</g>
		<g transform="matrix(0.30529451148382114 0 0 -0.30529451148382114 29.258815391586438 -8.203263523570314)">
			<path class="st1" d="M-16.9,233.3V97.9h265.1v135.4H-16.9"/>
		</g>
		<g transform="matrix(0.30529451148382114 0 0 -0.30529451148382114 -29.652340016889184 -8.203263523570314)">
			<path class="st2" d="M133.9,233.3h-267.6V97.9h267.6V233.3"/>
		</g>
		<g transform="matrix(0.30529451148382114 0 0 -0.30529451148382114 -0.07693421689390334 -120.0317271965595)">
			<path class="st0" d="M192.4,479V342.8c0-14.6-11.8-26.4-26.4-26.4c-14.6,0-26.4,11.8-26.4,26.4v149.6
				c-10.5,1.4-21.1,2.4-31.9,2.4H84.5v-152c0-14.6-11.8-26.4-26.4-26.4s-26.4,11.8-26.4,26.4v152H8.5c-9.3,0-18.5-0.7-27.5-1.7
				V342.8c0-14.6-11.8-26.4-26.4-26.4s-26.4,11.8-26.4,26.4v137.8c-86.2-31.1-149.4-110.4-156.6-205.5h573.1
				C337.5,368.6,276.4,446.9,192.4,479"/>
		</g>
		<g transform="matrix(0.30529451148382114 0 0 -0.30529451148382114 -0.0006105890230401201 32.966311939045994)">
			<path class="st3" d="M58.2,170.1L85.9,114l61.9-9l-44.8-43.7l10.6-61.6L58.2,28.8L2.9-0.3l10.6,61.6L-31.3,105l61.9,9L58.2,170.1
				"/>
		</g>
		<g transform="matrix(0.30529451148382114 0 0 -0.30529451148382114 0 48.974429648700124)">
			<path class="st0" d="M380.8,535.4V304.1l-7.1-64.4C358.7,104.1,244.4,1.9,107.8,1.9H8.7c-136.6,0-250.9,102.3-265.9,237.9
				l-7.1,64.4v231.3h-59.5V302.5l7.5-69.3C-298,67.4-158.2-57.6,8.7-57.6h19.4V-369h-322.2v-59.5h704.6v59.5h-323v311.4h20.2
				c166.9,0,306.6,125,325,290.8l7.3,66l0.2,236.2H380.8"/>
		</g>
	</g>
	<g transform="matrix(1.5745007680491552 0 0 1.5745007680491552 512 743.8703437176664)">
		<path class="st2" d="M-309.6,111.7c-1.8-0.3-3.6-1.5-5.4-3.6c-1.8-2.1-3-4-3.6-5.8l0,0c0-0.2-0.1-0.5-0.3-0.8s-0.4-0.5-0.5-0.6
			l0,0c-0.5-0.3-0.7-2.2-0.7-5.5l0,0c0-2.7,0.1-5.5,0.4-8.4c0.3-2.9,0.6-5.2,1.1-7l0,0l3-8.9l2.3-6.7l4.5-9.7l-6.7-1.8
			c-0.8-0.1-1.4-0.5-1.9-1.2c-0.5-0.7-0.8-1.3-0.8-1.8l0,0c0-0.9,0.5-2,1.4-3.3c1-1.3,1.7-1.9,2.3-1.9l0,0c0.3,0.1,1.2,0.2,2.7,0.2
			l0,0c3.3,0,5.9-0.2,7.5-0.5l0,0c1.1-0.5,1.9-1.3,2.4-2.7l0,0c0.4-0.9,1-2,1.6-3.3c0.6-1.3,1.2-2.5,1.8-3.7l0,0
			c0.3-0.7,0.8-1.7,1.6-3.1c0.7-1.4,1.6-3,2.8-4.8l0,0c0.2-0.3,0.7-1.1,1.5-2.4c0.8-1.3,1.7-2.4,2.8-3.2l0,0
			c0.8-0.8,1.7-1.2,2.9-1.2l0,0c1.1,0,2.6,0.7,4.3,2.2l0,0c0.2,0.3,0.5,0.8,0.9,1.3c0.4,0.6,0.6,1.1,0.6,1.5l0,0
			c0,0.5-0.4,1.4-1.3,2.9l0,0c-0.7,1.3-1.3,2.5-1.9,3.6c-0.6,1.1-1.1,2-1.6,2.8l0,0c-1.3,2.2-2.3,3.9-2.8,5l0,0
			c-1.1,1.5-1.7,2.6-1.7,3.3l0,0c0,0.8,0.7,1.2,2.2,1.2l0,0c1.6,0,4.2-0.3,7.9-1l0,0c1.6-0.2,2.6-0.3,3.2-0.3l0,0
			c3.9,0,6,1.6,6.3,4.8l0,0c0.1,0.7,0.2,1.5,0.2,2.4l0,0c0,1.6-0.5,2.5-1.6,2.8c-1.1,0.3-3.4,0.5-7.1,0.5l0,0
			c-3.6,0.5-7.2,0.8-11,0.8l0,0c-0.7,0-1.4,0-2.3,0.1c-0.8,0-1.7,0.2-2.6,0.4l0,0c-0.9,0.2-1.6,0.6-1.9,1c-0.4,0.5-0.8,1.2-1.2,2.2
			l0,0c-0.3,0.3-1.1,1.6-2.4,3.9l0,0c-1.6,3.2-2.6,5.2-3,5.8l0,0c-3,8.9-5.3,18.1-6.7,27.4l0,0c-0.2,1.8-0.3,2.9-0.3,3.3l0,0
			c0,1.7,0.6,2.8,1.7,3.5c1.1,0.7,3,1,5.7,1l0,0c3.8,0,7.1-0.4,9.9-1.2l0,0c3.3-1.5,5.8-2.7,7.5-3.7l0,0c1-0.5,1.9-1.1,2.8-1.6
			c0.8-0.5,1.4-0.9,1.7-1.1l0,0c0.3-0.7,0.7-1,1.2-1l0,0c0.9,0,1.7,0.9,2.3,2.7l0,0c0,1.8-0.4,3.3-1.2,4.7c-0.8,1.3-2.7,2.9-5.8,4.7
			l0,0c-6.5,4.1-12.9,6.2-19.4,6.2l0,0C-306.4,112.2-308.1,112-309.6,111.7L-309.6,111.7z M-261.5,103.8h-1c-1.7,0-3-0.4-3.9-1.2
			l0,0c-0.9-0.8-1.5-1.4-1.7-1.8c-0.3-0.4-0.4-1-0.4-1.7l0,0c0-0.4,0.4-2.5,1.2-6.2l0,0l1.5-5.5c1.1-4.6,2.1-8.4,3-11.4l0,0
			c0.5-2.8,1.3-5.8,2.6-8.9c1.3-3.1,2-5,2.3-5.7l0,0c0.9-3.2,2.6-8.2,5.2-15.1l0,0l5-13.5c3.9-10.6,6.3-17.1,7-19.4l0,0l2.7-7.3
			c0-1.8,0.9-2.7,2.7-2.7l0,0c1.6,0,2.9,0.9,3.9,2.6c1.1,1.7,1.6,3.7,1.6,5.9l0,0c0,1.7-0.3,3.3-1,4.8l0,0
			c-1.6,3.3-3.3,7.6-5.1,12.6c-1.8,5.1-3,8.4-3.6,10l0,0c-3.8,10.7-6.5,17.8-8.2,21.4l0,0c0,0.5-0.2,1.2-0.5,2.4
			c-0.3,1.1-0.7,2.1-1.2,3l0,0l-1.8,3.7c0,0.3-0.6,2.7-1.8,7l0,0c-1.6,4.8-2.5,8.3-2.8,10.5l0,0c0.5-1,1.7-2.5,3.5-4.6
			c1.8-2.1,3.4-3.7,5-5.1l0,0c6.1-5.2,9.9-8.4,11.4-9.4l0,0c1.3-0.8,2.5-1.5,3.3-2.2c0.9-0.7,1.5-1.1,1.8-1.3l0,0
			c0-0.6,0.6-0.8,1.8-0.8l0,0c0.5,0,0.7-0.1,0.8-0.2c0-0.1,0.1-0.4,0.1-0.8l0,0c0-0.8,1.3-1.5,3.9-2.1c2.6-0.6,4.9-0.9,6.9-0.9l0,0
			c1.3,0,2.4,0.3,3.2,0.8c0.8,0.6,1.8,1.8,3,3.7l0,0c1.9,2.7,2.9,5.6,2.9,8.7l0,0c0,1.8-0.3,3.6-1,5.5l0,0c0,0.9-0.1,2.3-0.4,4.1
			c-0.3,1.8-0.4,3.4-0.4,4.8l0,0l-1,5.4h2.7c0.8,0,1.5,0.1,2.3,0.3c0.7,0.2,1.2,0.4,1.4,0.5l0,0c1,1.2,1.9,1.8,2.7,1.8l0,0
			c1,0,1.5,0.4,1.5,1.2l0,0c0,0.4-0.2,1-0.7,1.7c-0.4,0.7-1.1,1.2-1.8,1.7l0,0c-2.9,1.8-5.3,2.7-7.3,2.7l0,0c-1.9,0-3.8-0.9-5.9-2.7
			l0,0c-2.4-2.5-3.7-5.4-3.7-8.9l0,0c0-1.8,0.3-3.9,1-6.3l0,0l0.5-5.4c0.2-2.7,0.3-4.4,0.3-5l0,0c0-2.6-0.6-3.9-1.8-3.9l0,0
			c-1.6,0-4.6,1.4-9,4.1c-4.4,2.7-8.9,6.1-13.6,10.2c-4.7,4.1-8.4,8.2-11.2,12.3l0,0c-1.7,2.1-3.1,3.7-4.3,4.8
			C-259.4,103.1-260.5,103.7-261.5,103.8L-261.5,103.8z M-160.5,107c-2.8,2.5-6.1,3.7-10,3.7l0,0c-2.8,0-5.4-0.7-7.9-2
			c-2.5-1.3-4.6-3.2-6.3-5.5l0,0c-1.4-1.8-2.5-3.8-3.2-6c-0.7-2.2-1-5-1-8.2l0,0c0-1.1,0.1-3.3,0.3-6.7l0,0
			c0.3-4.1,1.7-8.4,4.1-12.9c2.4-4.5,5.4-8.4,8.9-11.9c3.6-3.5,7.1-6,10.5-7.3l0,0c1.8-1.1,3.4-1.7,4.8-1.7l0,0
			c0.8,0,1.6,0.1,2.3,0.2c0.8,0.1,1.6,0.2,2.5,0.3l0,0c2.5,0.3,4.3,0.8,5.6,1.4c1.3,0.6,2.4,1.5,3.3,2.8l0,0c2.8,2.8,4.2,6,4.2,9.7
			l0,0c-0.5,2.7-2.2,5.7-5.2,9.2s-6.6,6.2-10.9,8.4l0,0c-2,0.7-4.3,1-6.9,1l0,0c-3.5,0-6.2-0.7-8.4-2.2l0,0c-1-0.3-1.8-0.5-2.4-0.5
			l0,0c-1,0-1.8,0.7-2.3,2c-0.5,1.3-1,3.8-1.4,7.4l0,0c-0.1,0.8-0.2,1.9-0.2,3.3l0,0c0,5.7,1.9,8.8,5.7,9.4l0,0
			c2.6,0.6,4.4,0.8,5.5,0.8l0,0c1.3,0,2.8-0.5,4.5-1.4l0,0l3.2-1.8c0.7-0.3,1.3-0.8,1.8-1.4c0.6-0.5,1.1-1.1,1.5-1.5l0,0
			c0.2-0.2,0.6-0.6,1-1.1c0.4-0.5,0.8-0.8,1.2-1c0.4-0.2,0.8-0.2,1.1-0.2l0,0c0.5,0,1,0.3,1.5,0.8c0.6,0.5,1,0.9,1.3,1.1l0,0
			c1,0,1.2,0.7,0.7,2.1c-0.5,1.4-1.7,3-3.6,4.8C-156,103.9-158.1,105.6-160.5,107L-160.5,107z M-160.6,71.6c1.9-0.8,3.8-2.2,5.8-4.2
			c2-2,2.9-3.7,2.9-5l0,0c0-1.3-0.5-2.5-1.5-3.3c-1-0.9-2.4-1.3-4.2-1.3l0,0c-1.3,0-2.3,0.1-3,0.3l0,0c-1.6,0.4-3.4,1.6-5.5,3.6
			c-2.1,2-4,3.9-5.5,5.9c-1.6,2-2.2,3.2-1.8,3.5l0,0c0.5,1,2.7,1.5,6.5,1.5l0,0C-164.4,72.6-162.3,72.2-160.6,71.6L-160.6,71.6z
			 M-142.1,150.3l-1.3,0.2c-0.9,0-1.6-0.5-2.2-1.5l0,0c-0.5-0.8-0.8-1.7-0.8-2.8l0,0c0-0.8,0.3-2.7,0.8-5.7l0,0
			c1.2-4.7,1.8-7.9,1.8-9.7l0,0c0-0.5,0.1-1.4,0.3-2.4c0.2-1.1,0.4-2,0.5-2.9l0,0c0.5-0.8,0.9-2,1.3-3.6c0.4-1.6,0.6-3,0.6-4.3l0,0
			c0-0.5,0.2-1.2,0.6-1.9c0.4-0.7,0.9-1.3,1.4-1.8l0,0c0-0.7,0.2-1.7,0.5-3.1c0.3-1.4,0.5-2.4,0.7-2.9l0,0c0.6-3,2.7-10.1,6.5-21.4
			c3.8-11.3,7-20.3,9.7-27.3l0,0c1.2-2.8,2.1-5.3,2.7-7.7c0.6-2.3,0.8-4.2,0.8-5.5l0,0c0-0.5,0.1-0.9,0.4-1.3
			c0.3-0.4,0.8-0.9,1.4-1.6l0,0c0.8-0.8,1.5-1.2,2.2-1.2l0,0c0.6,0,1.2,0.2,1.8,0.7c0.7,0.5,1.3,1,2,1.5l0,0c0.7,1,1.2,1.9,1.6,2.8
			c0.4,0.9,0.6,1.9,0.6,2.9l0,0c0,0.3-0.1,1.4-0.3,3.2l0,0c0,2.3-0.5,4.3-1.5,5.8s-1.4,2.2-1.2,2.1l0,0c5-2.3,9.5-3.5,13.4-3.5l0,0
			c4.7,0,8.3,1.5,11,4.5c2.6,3,4,6.9,4,11.7l0,0c0,2-0.6,4.4-1.8,7.3c-1.2,2.8-2.3,4.8-3.4,5.8l0,0c-0.7,0-1.6,1.2-2.7,3.5l0,0
			c-1.4,1.8-3.8,3.6-7.2,5.6c-3.3,1.9-5.7,2.7-7,2.3l0,0c-0.1,0-0.3,0.1-0.5,0.2c-0.2,0.1-0.3,0.4-0.3,0.8l0,0
			c0,0.5-1.9,1.3-5.7,2.5c-3.8,1.2-6.9,1.8-9.4,1.8l0,0c-1.3,0-2.3-0.1-3-0.3c-0.7-0.2-1.3-0.5-2-1.1l0,0c-0.8,0.8-1.2,1.5-1.2,2.2
			l0,0c0,1.2-0.6,3.5-1.7,6.7c-1.1,3.2-2,4.8-2.7,4.8l0,0c-0.1,0.1-0.3,0.3-0.4,0.7c-0.2,0.3,0,0.7,0.4,1.2l0,0
			c0,0.3-0.1,1.1-0.2,2.4c-0.1,1.2-0.4,2.2-0.8,2.8l0,0c0,1-0.2,2.4-0.5,4.1c-0.3,1.7-0.7,3-1.2,3.9l0,0c0,1.3-0.2,2.6-0.6,3.9
			c-0.4,1.3-0.8,1.9-1.3,1.9l0,0c-0.7,0.2-1,1.8-1,4.8l0,0c-0.1,2.8-0.7,5-1.7,6.5C-139.6,149.6-140.7,150.3-142.1,150.3
			L-142.1,150.3z M-121.8,94.5c1.7,0,5-0.9,10.1-2.6c5.1-1.7,8.6-3.4,10.6-5.1l0,0c2.3-2,4.2-4.2,5.7-6.4c1.5-2.3,2.2-4.6,2.2-6.9
			l0,0c0-1.8-0.5-3.4-1.5-4.9l0,0c-0.8-1.2-2.1-1.8-4-1.8l0,0c-2.2,0-4.9,0.8-7.9,2.3c-3.1,1.6-5.9,3.6-8.4,6.2l0,0
			c-2,2-3.8,4.9-5.4,8.6c-1.6,3.7-2.4,6.7-2.4,8.8l0,0C-122.9,93.9-122.5,94.5-121.8,94.5L-121.8,94.5z M-69.2,107
			c-0.9-0.7-1.5-1.3-1.8-1.8c-0.3-0.6-0.5-1.4-0.5-2.5l0,0c0-1,0.1-1.8,0.2-2.5l0,0c0.3-3.8,1.2-8.2,2.5-13.2l0,0l0.8-3.3
			c0.3-2.8,2.3-8.6,5.8-17.5s6.5-15,8.7-18.2l0,0c0.9-0.6,1.8-0.8,2.8-0.8l0,0c1.5,0,2.7,0.5,3.7,1.5l0,0c0.7,0.5,1,1.3,1,2.5l0,0
			c0,1.1-0.4,2.8-1.2,4.9c-0.8,2.2-2.3,5.4-4.3,9.6l0,0c-0.5,0.9-1.2,2.6-2.3,5c-1.1,2.5-1.6,3.9-1.6,4.4l0,0c0,0.2,0.1,0.3,0.2,0.3
			l0,0c0.2,0,0.4-0.1,0.7-0.2c0.2-0.2,0.5-0.3,0.7-0.4l0,0c1.2-2.1,4.2-5,8.9-8.7c4.8-3.7,8-6,9.8-6.9l0,0c0.8-0.4,1.8-0.9,3-1.3
			c1.2-0.5,2.1-0.8,2.5-1l0,0c1.8-0.9,3.9-1.4,6.3-1.4l0,0c1.6,0,2.9,0.3,4.1,0.8c1.2,0.5,2,1.3,2.4,2.3l0,0
			c0.1,0.8,0.4,1.4,0.9,1.8c0.5,0.5,0.9,0.7,1.1,0.8l0,0c0.3,0,0.5,0.1,0.7,0.4c0.1,0.3,0.2,0.5,0.2,0.6l0,0c0,0.8-0.4,1.3-1.3,1.4
			c-0.9,0.2-2.5,0.3-4.8,0.4l0,0c-1.2,0.1-2.5,0.4-3.9,0.8c-1.3,0.4-2.7,1-4,1.7l0,0c-6.3,3.6-10.9,6.4-14,8.4
			c-3.1,2-6.1,4.7-9.3,8.2l0,0c-1.2,1.3-2.8,3.7-4.8,7.2l0,0c-0.8,0.8-1.6,2.8-2.4,6.1c-0.8,3.3-1.2,5.3-1.2,6.1l0,0
			c-0.1,0.3-0.3,1-0.7,1.9c-0.3,0.9-0.8,1.8-1.5,2.7l0,0c-1.3,1.8-2.5,2.7-3.3,2.7l0,0C-66.2,109.7-67.5,108.8-69.2,107L-69.2,107z
			 M-0.6,110.3c-1.3,0-2.4-0.2-3.2-0.7c-0.8-0.5-1.9-1.3-3.3-2.5l0,0c-3.7-3.9-5.5-7.5-5.5-10.7l0,0c0-0.8,0-1.3,0.1-1.7l0,0
			c0.3-0.8,0.5-1.6,0.4-2.4c-0.1-0.8-0.1-1.3-0.1-1.5l0,0c-0.4-0.5-0.7-0.8-0.7-0.9s0.1-0.3,0.3-0.5c0.2-0.2,0.4-0.4,0.5-0.6l0,0
			c0.7,0,0.9-0.6,0.7-1.8l0,0c-0.2-0.9,0.2-2.9,1.3-5.9c1.1-3.1,2.5-5.9,4.2-8.4l0,0c1.2-2,3-4.5,5.5-7.5c2.4-3,4.5-5.3,6.4-6.8l0,0
			c2.7-2.3,5.1-4.1,7.2-5.2c2.1-1.1,4.5-2,7-2.5l0,0c2.2-0.5,3.7-0.8,4.5-0.8l0,0c0.8,0,1.5,0.2,2.1,0.6c0.6,0.4,1.4,1.1,2.4,2.1
			l0,0c3,1.3,5.1,3,6.3,5.1c1.2,2.1,1.8,5.3,1.8,9.6l0,0c0,7.3-3,15.1-8.9,23.6l0,0c-2.6,3.7-5,6.5-7.2,8.5c-2.2,1.9-5.2,4-8.8,6.3
			l0,0c-2.3,1.7-4.5,2.9-6.4,3.6C4,109.8,1.8,110.3-0.6,110.3L-0.6,110.3z M15.5,92.6c2.7-3,4.8-5.8,6.4-8.5
			c1.6-2.7,3.2-6.1,4.6-10.2l0,0c0.6-1.9,0.8-4.2,0.8-6.9l0,0c0-3.3-0.5-5.2-1.4-5.7l0,0c-1.1-0.6-2.2-0.8-3.3-0.8l0,0
			c-2.4,0-5,1.1-7.7,3.3l0,0c-3.2,2.8-6.1,6.2-8.7,10.3c-2.6,4.1-5.2,9.1-7.9,15.1l0,0c-1.1,2.3-1.7,4.6-1.7,6.9l0,0
			c0,1.7,0.4,3,1.3,4c0.8,1,2,1.5,3.4,1.5l0,0C5.1,101.7,9.8,98.7,15.5,92.6L15.5,92.6z M90.7,116c-2.8,0.7-4.7-0.5-5.7-3.7l0,0
			c-1.6-4.3-2.4-8.9-2.4-13.7l0,0c0-1.3,0.1-2.3,0.2-2.8l0,0l0.3-3.5l-6.5,5.2c-3.6,3.1-7.1,5.5-10.6,7c-3.5,1.6-6.7,2.4-9.6,2.4
			l0,0c-1.9-0.3-3.7-1.1-5.4-2.4c-1.7-1.3-3-2.8-3.8-4.6l0,0c-0.5-0.9-0.7-2.2-0.7-4l0,0c0-4.1,1.1-9,3.3-14.6
			c2.2-5.6,5-10.3,8.4-14l0,0c4.8-7.2,10.2-10.9,16.1-10.9l0,0c2.8,0,5.6,0.8,8.3,2.5l0,0c2.8,1.1,4.4,1.7,4.9,1.7l0,0
			c0.7,0,1.2-0.3,1.5-0.8c0.3-0.6,0.7-1.6,1-3l0,0c1.2-5.1,2.4-9.4,3.5-12.9l0,0c2.5-7.4,4.6-13.3,6.3-17.7c1.8-4.5,4-9.4,6.5-14.7
			l0,0c1.1-2.3,2.1-3.9,2.9-4.6c0.8-0.7,1.8-1,2.8-0.9l0,0c2.5,0,4.4,1.7,5.7,5l0,0c0.3,0.8,0.5,1.6,0.5,2.4l0,0
			c0,0.8-0.3,1.8-1,3.2l0,0c-2.9,5-6.5,13.2-10.7,24.6c-4.2,11.4-7.5,21.2-9.9,29.6l0,0c-1,3.7-1.9,9-2.6,15.9
			c-0.7,6.9-1.1,12.7-1.1,17.2l0,0c0,2,0.1,3.5,0.3,4.4l0,0c0.6,1.9,0.8,3.6,0.8,5l0,0c0,1.1-0.3,1.9-0.8,2.3
			C92.8,115.7,91.9,115.9,90.7,116L90.7,116z M62.4,97.5c2.6-0.5,5.7-2.2,9.4-5l0,0c0.7-0.4,2.3-1.6,4.8-3.5c2.6-1.9,4.5-3.9,5.9-6
			c1.3-2.1,2.3-4.5,2.8-7.2l0,0c0.1-2-0.1-3.6-0.6-4.9c-0.5-1.3-1.5-2.6-2.9-3.8l0,0c-1.1-0.8-2.5-1.2-4.2-1.2l0,0
			c-3,0-5.8,1.2-8.4,3.7l0,0c-3,2.7-5.7,6.1-8,10.4c-2.3,4.2-4.1,9.1-5.3,14.7l0,0c-0.3,2.1,0.8,3.2,3.3,3.2l0,0
			C60.6,97.8,61.7,97.7,62.4,97.5L62.4,97.5z M130.8,111c-1.6,0.2-2.7,0.3-3.5,0.3l0,0c-4.1,0-7.5-1.3-10.2-3.9
			c-2.7-2.6-4-6.1-4-10.7l0,0c-0.4-4.9,0.7-11,3.3-18.2c2.6-7.2,5.9-13.3,9.9-18.2l0,0c2.8-3.2,5.2-5.8,7.2-7.9c2-2,3.8-3.3,5.5-4
			l0,0c2.3-1,5-1.5,7.9-1.5l0,0c2,0.5,4,1.3,5.9,2.5c2,1.2,2.9,2.5,2.9,3.7l0,0l0.8,0.8c0.7,0,1.3,0.8,1.8,2.4
			c0.6,1.6,0.8,3.4,0.8,5.3l0,0c0,1.6-0.3,2.9-0.8,4l0,0c-0.4,2.1-1.2,4-2.3,5.5c-1.1,1.6-2.1,2.4-3.1,2.4l0,0c-1.2,0-1.8,0.3-1.8,1
			l0,0c0,0.4-0.2,0.7-0.7,0.7l0,0c-0.6,0-1.2-0.3-2-1s-1.3-1.4-1.7-2.4l0,0c0-0.3,0.2-1.3,0.7-2.8c0.4-1.6,0.9-3.3,1.3-5.2l0,0
			c0.3-1.3,0.5-2.5,0.5-3.5l0,0c0-2.2-0.8-3.3-2.5-3.3l0,0c-0.9,0-1.8,0.2-2.7,0.7l0,0c-4.5,2.5-8.4,6.4-11.9,11.7
			c-3.5,5.3-6.4,12.7-8.7,22.1l0,0c-0.6,2.5-0.8,4.4-0.8,5.8l0,0c0,1.1,0.1,2,0.3,2.7c0.2,0.7,0.4,1.1,0.6,1.2l0,0
			c0.5,0.2,1.7,0.3,3.5,0.3l0,0c4.1,0,7-0.5,8.7-1.5l0,0c3.6-1.9,7.5-4.5,11.9-7.7l0,0c0.4-0.3,1.1-0.9,2-1.7
			c0.9-0.8,1.7-1.4,2.5-1.8l0,0c0.8-1.2,1.5-2,2.2-2.3c0.7-0.3,1.7-0.4,3.2-0.4l0,0c1.4,0.5,2.6,1,3.5,1.7c0.9,0.7,0.9,1.3,0,1.8
			l0,0c-0.3,0-0.6,0.1-0.7,0.3c-0.1,0.2-0.2,0.4-0.2,0.5l0,0c0.2,0.6-0.7,2-2.7,4.2c-2,2.2-4.2,4.3-6.7,6.3c-2.5,1.9-4.1,2.9-5,2.9
			l0,0c-0.5,0-0.8,0.1-1.2,0.2c-0.3,0.1-0.5,0.4-0.5,0.8l0,0c0,0.4-1.7,1.5-5.1,3.1C135.7,109.5,133,110.6,130.8,111L130.8,111z
			 M173.1,106.9c-0.3-0.7-0.8-1.4-1.6-2.1s-1.1-1.2-1.1-1.4l0,0c0-1.2-0.3-2.2-0.8-2.9l0,0c-0.2-0.2-0.3-0.7-0.3-1.5l0,0
			c0-1.8,0.9-4.8,2.6-9.1c1.7-4.3,4-8.9,6.8-14l0,0c0.7-0.7,1.5-1.8,2.6-3.5c1.1-1.7,1.8-2.6,2.1-2.8l0,0c0-0.5,0.2-0.9,0.5-1.3
			c0.3-0.4,0.7-0.6,1.2-0.6l0,0v-1c0-1,1.8-3.4,5.5-7.3c3.7-3.8,6.7-6.5,9-7.9l0,0c2.8-1.9,5.6-2.9,8.5-2.9l0,0c2,0,3.7,0.6,5.2,1.7
			l0,0c0.6,0.7,3.1,3.1,7.7,7.2l0,0l6.2,5.5l-3,8.4c-1,3-1.5,5.7-1.5,8.2l0,0c0,4.2,1.2,8.3,3.7,12.2l0,0c0.5,1.2,1.7,2.4,3.3,3.5
			c1.7,1.1,3.3,1.8,5,2l0,0c2.4,0.5,3.7,1.7,3.7,3.7l0,0c0,2.2-1,3.6-3,4l0,0c-0.4,0.1-1.1,0.2-2,0.2l0,0c-6.6,0-12.3-4.6-17-13.9
			l0,0c-0.5-0.7-1-1.9-1.8-3.7s-1.1-3-1.3-3.7l0,0c-0.7,0.9-1.5,1.9-2.5,3.2c-1,1.2-1.9,2.3-2.8,3.2l0,0
			c-12.2,12.2-21.8,18.2-28.8,18.2l0,0C176.9,108.5,174.9,108,173.1,106.9L173.1,106.9z M179.2,97.5c0,0.6,0.6,0.7,1.7,0.5
			c1.2-0.2,2.6-0.8,4.4-1.7c1.7-0.9,3.5-2.1,5.3-3.5l0,0c9.6-8.3,16.5-15.4,20.7-21.6l0,0l3.7-6c-1.1-2.3-2.3-4-3.5-5.1
			c-1.2-1.1-2.3-1.6-3.3-1.6l0,0c-2.3,0-6,2.9-11,8.8c-5,5.8-9.6,12.7-13.7,20.6l0,0c-1,1.9-1.9,3.8-2.7,5.8
			C179.9,95.7,179.4,96.9,179.2,97.5L179.2,97.5z M255.2,113.5c-2-0.8-4-1.9-5.8-3.4c-1.9-1.5-3.2-2.8-3.9-3.9l0,0
			c0-0.2,0-0.6,0-1.2c0-0.6,0.2-0.9,0.5-1.1c0.3-0.2,0.9-0.3,1.8-0.3l0,0c1.9,0,4.9,0.2,9,0.7l0,0c2.5,0,5.2-0.3,8.4-0.9
			c3.1-0.6,4.8-1.3,5.2-2.1l0,0c0.3,0,0.5-0.1,0.5-0.2l0,0c0-0.2-0.4-0.8-1.3-1.7l0,0c-0.2,0-0.7-0.2-1.5-0.6
			c-0.8-0.4-1.3-0.6-1.5-0.6l0,0c0-0.5-0.5-1-1.5-1.8c-1-0.7-2.1-1.4-3.3-1.9l0,0c-3.2-2.7-5.5-4.7-6.9-5.9
			c-1.3-1.3-1.8-2.2-1.5-2.8l0,0v-0.8c-0.8,0-1.6-1.1-2.6-3.3c-0.9-2.2-1.4-4.2-1.4-6.1l0,0c0-2,0.9-4.8,2.6-8.4
			c1.7-3.6,3.7-6.5,5.9-8.7l0,0c3.1-2.9,7.2-6,12.1-9.2c5-3.2,8.9-5.3,11.8-6.2l0,0c1.9-0.8,3.8-1.2,5.7-1.2l0,0
			c1.8,0,3.3,0.4,4.5,1.2l0,0c1.5,0.9,2.9,2.2,4.3,3.8c1.4,1.7,2.3,3.2,2.8,4.5l0,0c0,2.4-0.3,4.8-0.8,7.1c-0.5,2.3-1.3,3.4-2.3,3.4
			l0,0c-0.1,0-0.3,0.1-0.5,0.2c-0.2,0.1-0.3,0.4-0.3,0.8l0,0c0,0.4-0.2,1-0.7,1.7c-0.5,0.7-1.1,1.4-1.8,2.1l0,0
			c-2.5,1.8-4.5,2.7-6,2.7l0,0c-1.2,0-2-0.6-2.3-1.8l0,0c-0.2-0.2-0.5-0.6-0.7-1c-0.2-0.4-0.5-0.7-0.8-0.7l0,0
			c-0.1,0-0.3-0.2-0.6-0.6c-0.3-0.4-0.4-0.9-0.4-1.6l0,0c0-0.3,0.1-0.7,0.4-1.1c0.3-0.4,0.5-0.6,0.6-0.8l0,0c0.7,0,1.8-1.3,3.3-3.9
			c1.6-2.6,2.3-4.4,2.3-5.3l0,0c0-0.7-0.1-1.1-0.2-1.2c-0.2-0.1-0.7-0.1-1.6-0.1l0,0c-8.7,3.9-14.1,6.8-16.2,8.8l0,0
			c-0.3,0.7-0.6,1.1-0.8,1.3c-0.2,0.2-0.5,0.3-0.9,0.3l0,0c0-1-3,2.8-8.9,11.4l0,0c-0.2,0.2-0.5,0.9-0.8,2c-0.3,1.1-0.4,2.1-0.4,2.9
			l0,0c-0.2,0.9-0.3,1.4-0.3,1.5l0,0c0,0.4,0.2,0.9,0.6,1.3c0.4,0.4,0.9,0.9,1.6,1.4c0.7,0.5,1.3,1,2,1.6l0,0
			c5.8,4.3,9.8,7.6,12.1,9.8c2.3,2.2,3.7,4,4.1,5.4l0,0c1.5,2.2,2.2,4.2,2.2,6l0,0c0,1.3-0.5,2.5-1.5,3.5c-1,1-2.5,2-4.5,2.9l0,0
			c-1.2,0.5-3.3,1-6.2,1.4c-2.9,0.4-5.7,0.6-8.5,0.6l0,0C258.7,113.9,257,113.8,255.2,113.5L255.2,113.5z M317,111.7
			c-1.8-0.3-3.6-1.5-5.4-3.6c-1.8-2.1-3-4-3.6-5.8l0,0c0-0.2-0.1-0.5-0.3-0.8s-0.4-0.5-0.5-0.6l0,0c-0.4-0.3-0.7-2.2-0.7-5.5l0,0
			c0-2.7,0.1-5.5,0.4-8.4c0.3-2.9,0.6-5.2,1.1-7l0,0l3-8.9l2.4-6.7l4.5-9.7l-6.7-1.8c-0.8-0.1-1.4-0.5-1.9-1.2
			c-0.5-0.7-0.8-1.3-0.8-1.8l0,0c0-0.9,0.5-2,1.4-3.3c1-1.3,1.7-1.9,2.3-1.9l0,0c0.3,0.1,1.2,0.2,2.7,0.2l0,0c3.3,0,5.8-0.2,7.5-0.5
			l0,0c1.1-0.5,1.9-1.3,2.4-2.7l0,0c0.4-0.9,1-2,1.6-3.3c0.6-1.3,1.2-2.5,1.8-3.7l0,0c0.3-0.7,0.9-1.7,1.6-3.1
			c0.7-1.4,1.6-3,2.8-4.8l0,0c0.2-0.3,0.7-1.1,1.5-2.4c0.8-1.3,1.7-2.4,2.9-3.2l0,0c0.8-0.8,1.7-1.2,2.8-1.2l0,0
			c1.1,0,2.6,0.7,4.3,2.2l0,0c0.2,0.3,0.5,0.8,0.9,1.3c0.4,0.6,0.6,1.1,0.6,1.5l0,0c0,0.5-0.4,1.4-1.3,2.9l0,0
			c-0.7,1.3-1.3,2.5-1.9,3.6c-0.6,1.1-1.1,2-1.6,2.8l0,0c-1.3,2.2-2.3,3.9-2.8,5l0,0c-1.1,1.5-1.7,2.6-1.7,3.3l0,0
			c0,0.8,0.7,1.2,2.2,1.2l0,0c1.6,0,4.2-0.3,7.9-1l0,0c1.6-0.2,2.6-0.3,3.2-0.3l0,0c3.9,0,6,1.6,6.3,4.8l0,0
			c0.1,0.7,0.2,1.5,0.2,2.4l0,0c0,1.6-0.5,2.5-1.6,2.8c-1.1,0.3-3.4,0.5-7.1,0.5l0,0c-3.6,0.5-7.2,0.8-11,0.8l0,0
			c-0.7,0-1.4,0-2.3,0.1c-0.8,0-1.7,0.2-2.6,0.4l0,0c-0.9,0.2-1.5,0.6-1.9,1c-0.4,0.5-0.8,1.2-1.3,2.2l0,0c-0.3,0.3-1.1,1.6-2.4,3.9
			l0,0c-1.6,3.2-2.6,5.2-3,5.8l0,0c-3,8.9-5.2,18.1-6.7,27.4l0,0c-0.2,1.8-0.3,2.9-0.3,3.3l0,0c0,1.7,0.6,2.8,1.7,3.5
			c1.1,0.7,3,1,5.7,1l0,0c3.8,0,7.1-0.4,9.9-1.2l0,0c3.3-1.5,5.8-2.7,7.5-3.7l0,0c1-0.5,1.9-1.1,2.8-1.6c0.8-0.5,1.4-0.9,1.8-1.1
			l0,0c0.3-0.7,0.7-1,1.2-1l0,0c0.9,0,1.7,0.9,2.4,2.7l0,0c0,1.8-0.4,3.3-1.2,4.7c-0.8,1.3-2.7,2.9-5.8,4.7l0,0
			c-6.5,4.1-12.9,6.2-19.4,6.2l0,0C320.2,112.2,318.5,112,317,111.7L317,111.7z"/>
	</g>
</g>
</svg>
