<?xml version="1.0" encoding="utf-8"?>
<!-- Generator: Adobe Illustrator 24.1.0, SVG Export Plug-In . SVG Version: 6.00 Build 0)  -->
<svg version="1.1" id="Layer_1" xmlns="http://www.w3.org/2000/svg" xmlns:xlink="http://www.w3.org/1999/xlink" x="0px" y="0px"
	 viewBox="0 0 16 16" style="enable-background:new 0 0 16 16;" xml:space="preserve">
<style type="text/css">
	.st0{fill:#020202;}
	.st1{fill:#F4792A;}
	.st2{fill:#EA272A;}
	.st3{fill:#FFFFFF;}
</style>
<g id="logo-logo_1_" transform="matrix(1.5745007680491552 0 0 1.5745007680491552 512 437.4501309046606)">
	<g transform="matrix(0.30529451148382114 0 0 -0.30529451148382114 -0.07693421689401703 33.12170684539123)">
		<path class="st0" d="M-1054.6,1000.4c0.3-2.6,2.5-4.7,5.2-4.7h2.2c2.7,0,4.9,2,5.2,4.7L-1054.6,1000.4"/>
	</g>
	<g transform="matrix(0.30529451148382114 0 0 -0.30529451148382114 -29.650813544331754 -77.91787580992377)">
		<path class="st1" d="M-951.9,648.7h-5.8v-3h5.8V648.7"/>
	</g>
	<g transform="matrix(0.30529451148382114 0 0 -0.30529451148382114 29.260341864143925 -77.91787580992377)">
		<path class="st2" d="M-1143.9,648.7v-3h5.9v3H-1143.9"/>
	</g>
	<g transform="matrix(0.30529451148382114 0 0 -0.30529451148382114 -44.47744149454337 -43.06102760851431)">
		<path class="st2" d="M-906.7,758.9h-2.4v-3.2h2.4V758.9"/>
	</g>
	<g transform="matrix(0.30529451148382114 0 0 -0.30529451148382114 0.0009158835345033367 -43.06102760851431)">
		<path class="st1" d="M-1051.5,755.7h6v3.2h-6V755.7"/>
	</g>
	<g transform="matrix(0.30529451148382114 0 0 -0.30529451148382114 44.40142316118403 -43.06102760851431)">
		<path class="st2" d="M-1190,758.9v-3.2h2.4v3.2H-1190"/>
	</g>
	<g transform="matrix(0.30529451148382114 0 0 -0.30529451148382114 29.258815391586438 -8.203263523570314)">
		<path class="st1" d="M-1143.9,869v-3h5.8v3H-1143.9"/>
	</g>
	<g transform="matrix(0.30529451148382114 0 0 -0.30529451148382114 -29.652340016889184 -8.203263523570314)">
		<path class="st2" d="M-951.8,869h-5.9v-3h5.9V869"/>
	</g>
	<g transform="matrix(0.30529451148382114 0 0 -0.30529451148382114 -0.07693421689390334 -120.0317271965595)">
		<path class="st0" d="M-1045.3,516.2v-3c0-0.3-0.3-0.6-0.6-0.6c-0.3,0-0.6,0.3-0.6,0.6v3.3c-0.2,0-0.5,0.1-0.7,0.1h-0.5v-3.3
			c0-0.3-0.3-0.6-0.6-0.6c-0.3,0-0.6,0.3-0.6,0.6v3.3h-0.5c-0.2,0-0.4,0-0.6,0v-3.3c0-0.3-0.3-0.6-0.6-0.6s-0.6,0.3-0.6,0.6v3
			c-1.9-0.7-3.3-2.4-3.5-4.5h12.6C-1042.1,513.7-1043.4,515.5-1045.3,516.2"/>
	</g>
	<g transform="matrix(0.30529451148382114 0 0 -0.30529451148382114 -0.0006105890230401201 32.966311939045994)">
		<path class="st3" d="M-1048.5,999.5l0.6-1.2l1.4-0.2l-1-1l0.2-1.4l-1.2,0.6l-1.2-0.6l0.2,1.4l-1,1l1.4,0.2L-1048.5,999.5"/>
	</g>
	<g transform="matrix(0.30529451148382114 0 0 -0.30529451148382114 0 48.974429648700124)">
		<path class="st0" d="M-1041.4,1058.8v-5.1l-0.2-1.4c-0.3-3-2.8-5.2-5.9-5.2h-2.2c-3,0-5.5,2.3-5.9,5.2l-0.2,1.4v5.1h-1.3v-5.1
			l0.2-1.5c0.4-3.7,3.5-6.4,7.2-6.4h0.4v-6.9h-7.1v-1.3h15.5v1.3h-7.1v6.9h0.4c3.7,0,6.8,2.8,7.2,6.4l0.2,1.5l0,5.2H-1041.4"/>
	</g>
</g>
</svg>
