<svg id="Layer_1" data-name="Layer 1" xmlns="http://www.w3.org/2000/svg" viewBox="0 0 25 25"><defs><style>.cls-1{fill:#ed7728;}</style></defs><path class="cls-1" d="M14.82,12.5a2.32,2.32,0,1,1-2.32-2.32A2.32,2.32,0,0,1,14.82,12.5Z"/><path class="cls-1" d="M17.93,8.4a2.08,2.08,0,0,0-.53-.8,2.08,2.08,0,0,0-.8-.53,4,4,0,0,0-1.29-.23c-.73,0-1,0-2.81,0s-2.08,0-2.81,0a4,4,0,0,0-1.29.23,2.08,2.08,0,0,0-.8.53,2.08,2.08,0,0,0-.53.8,4,4,0,0,0-.23,1.29c0,.73,0,1,0,2.81s0,2.08,0,2.81a4,4,0,0,0,.23,1.29,2.08,2.08,0,0,0,.53.8,2.08,2.08,0,0,0,.8.53,4.2,4.2,0,0,0,1.29.24c.73,0,1,0,2.81,0s2.08,0,2.81,0a4.2,4.2,0,0,0,1.29-.24,2.35,2.35,0,0,0,1.33-1.33,4,4,0,0,0,.23-1.29c0-.73.05-1,.05-2.81s0-2.08-.05-2.81A4,4,0,0,0,17.93,8.4ZM12.5,16.07a3.57,3.57,0,1,1,3.57-3.57A3.57,3.57,0,0,1,12.5,16.07Zm3.71-6.45a.84.84,0,1,1,.84-.83A.83.83,0,0,1,16.21,9.62Z"/><path class="cls-1" d="M12.5.38A12.12,12.12,0,1,0,24.62,12.5,12.12,12.12,0,0,0,12.5.38Zm6.92,15a5,5,0,0,1-.33,1.69,3.56,3.56,0,0,1-2,2,5,5,0,0,1-1.69.33c-.74,0-1,0-2.87,0s-2.13,0-2.87,0a5,5,0,0,1-1.69-.33,3.54,3.54,0,0,1-2-2,5,5,0,0,1-.33-1.69c0-.74,0-1,0-2.87s0-2.13,0-2.87a5,5,0,0,1,.33-1.69,3.54,3.54,0,0,1,2-2,5,5,0,0,1,1.69-.33c.74,0,1,0,2.87,0s2.13,0,2.87,0a5,5,0,0,1,1.69.33,3.54,3.54,0,0,1,2,2,5,5,0,0,1,.33,1.69c0,.74,0,1,0,2.87S19.45,14.63,19.42,15.37Z"/></svg>