<svg id="Layer_1" data-name="Layer 1" xmlns="http://www.w3.org/2000/svg" viewBox="0 0 25 25"><defs><style>.cls-1{fill:#ed7728;}</style></defs><path class="cls-1" d="M12.5.51a12,12,0,1,0,12,12A12,12,0,0,0,12.5.51ZM18,9.86c0,.12,0,.24,0,.35A7.78,7.78,0,0,1,10.15,18h0a7.81,7.81,0,0,1-4.22-1.23c.22,0,.44,0,.66,0A5.51,5.51,0,0,0,10,15.67a2.75,2.75,0,0,1-2.57-1.91,2.94,2.94,0,0,0,.51.05,2.86,2.86,0,0,0,.73-.1A2.76,2.76,0,0,1,6.47,11v0a2.78,2.78,0,0,0,1.25.34A2.74,2.74,0,0,1,6.49,9a2.7,2.7,0,0,1,.38-1.38,7.79,7.79,0,0,0,5.67,2.87,2.59,2.59,0,0,1-.07-.63A2.75,2.75,0,0,1,17.23,8,5.39,5.39,0,0,0,19,7.34a2.8,2.8,0,0,1-1.21,1.53,5.71,5.71,0,0,0,1.58-.44A5.52,5.52,0,0,1,18,9.86Z"/></svg>